<svg width="164" height="164" viewBox="0 0 164 164" fill="none" xmlns="http://www.w3.org/2000/svg">
<path d="M159.007 92.7283C141.778 66.3471 143.609 39.3053 135.305 26.5908C127 13.8762 102.249 -8.0451 43.7697 30.1532C-14.7099 68.3516 0.163952 109.875 9.3024 123.856C52.07 189.329 189.525 139.45 159.007 92.7283Z" fill="#2C2C2C"/>
<path d="M82 133.25C110.305 133.25 133.25 110.305 133.25 82C133.25 53.6954 110.305 30.75 82 30.75C53.6954 30.75 30.75 53.6954 30.75 82C30.75 110.305 53.6954 133.25 82 133.25Z" fill="#EFD575"/>
<path d="M41 82C41 55.4274 61.2267 33.579 87.125 31.0097C85.4394 30.8411 83.7311 30.75 82 30.75C53.6963 30.75 30.75 53.6963 30.75 82C30.75 110.304 53.6963 133.25 82 133.25C83.7311 133.25 85.4394 133.159 87.125 132.99C61.2267 130.421 41 108.573 41 82Z" fill="#E6BE27"/>
<path d="M127.556 143.5C123.789 143.5 120.723 140.434 120.723 136.667C120.723 132.899 123.789 129.833 127.556 129.833C131.323 129.833 134.389 132.899 134.389 136.667C134.389 140.434 131.323 143.5 127.556 143.5ZM127.556 134.389C126.299 134.389 125.278 135.409 125.278 136.667C125.278 137.924 126.299 138.944 127.556 138.944C128.813 138.944 129.834 137.924 129.834 136.667C129.834 135.409 128.813 134.389 127.556 134.389Z" fill="#4A4A4A"/>
<path d="M81.9997 136.667C51.8556 136.667 27.333 112.144 27.333 82C27.333 51.8559 51.8556 27.3334 81.9997 27.3334C112.144 27.3334 136.666 51.8559 136.666 82C136.666 112.144 112.144 136.667 81.9997 136.667ZM81.9997 34.1667C55.623 34.1667 34.1663 55.6234 34.1663 82C34.1663 108.377 55.623 129.833 81.9997 129.833C108.376 129.833 129.833 108.377 129.833 82C129.833 55.6234 108.376 34.1667 81.9997 34.1667Z" fill="black"/>
<path d="M76.8743 100.222C75.9996 100.222 75.125 99.8897 74.4598 99.22L59.6543 84.4145L64.4877 79.581L76.8788 91.9721L104.076 64.7755L108.909 69.6089L79.2978 99.22C78.6236 99.8897 77.749 100.222 76.8743 100.222Z" fill="black"/>
</svg>
