<svg width="164" height="164" viewBox="0 0 164 164" fill="none" xmlns="http://www.w3.org/2000/svg">
<path d="M61.0936 159.441C89.7845 146.417 116.239 152.339 130.065 146.066C143.891 139.789 169.32 118.66 140.451 55.0552C111.583 -8.54948 68.2868 -0.158148 53.0758 6.74352C-18.1366 39.0652 10.2764 182.506 61.0936 159.441Z" fill="#2C2C2C"/>
<path d="M71.75 119.583H39.8611C34.85 119.583 30.75 115.483 30.75 110.472V53.5276C30.75 48.5165 34.85 44.4165 39.8611 44.4165H48.9722H83.1389H92.25C97.2611 44.4165 101.361 48.5165 101.361 53.5276V62.6387V119.583H71.75Z" fill="#E8E8E8"/>
<path d="M41 110.472V53.5276C41 48.5165 45.1 44.4165 50.1111 44.4165H48.9722H39.8611C34.85 44.4165 30.75 48.5165 30.75 53.5276V110.472C30.75 115.483 34.85 119.583 39.8611 119.583H50.1111C45.1 119.583 41 115.483 41 110.472Z" fill="#D2D2D2"/>
<path d="M83.1393 39.8611V48.9722C83.1393 51.4869 81.0984 53.5278 78.5838 53.5278H53.5282C51.0135 53.5278 48.9727 51.4869 48.9727 48.9722V39.8611H56.9449C56.9449 34.85 61.0449 30.75 66.056 30.75C71.0671 30.75 75.1671 34.85 75.1671 39.8611H83.1393Z" fill="#EFD575"/>
<path d="M56.2798 46.0293H59.2409C61.1314 46.0293 62.981 44.9497 63.5778 43.1593C64.7895 39.5422 66.0514 36.9182 72.2242 36.9182C73.0715 36.9182 73.9143 37.0731 74.748 37.2918C73.6273 33.5289 70.1696 30.75 66.056 30.75C61.0449 30.75 56.9449 34.85 56.9449 39.8611H48.9727V48.9722C48.9727 51.4869 51.0135 53.5278 53.5282 53.5278H56.2798V46.0293Z" fill="#E6BE27"/>
<path d="M128.694 133.25H89.9716C87.4569 133.25 85.416 131.209 85.416 128.694V80.8609C85.416 78.3462 87.4569 76.3054 89.9716 76.3054H128.694C131.208 76.3054 133.249 78.3462 133.249 80.8609V128.694C133.249 131.209 131.208 133.25 128.694 133.25Z" fill="#EFD575"/>
<path d="M95.666 128.694V80.8609C95.666 78.3462 97.7069 76.3054 100.222 76.3054H89.9716C87.4569 76.3054 85.416 78.3462 85.416 80.8609V128.694C85.416 131.209 87.4569 133.25 89.9716 133.25H100.222C97.7069 133.25 95.666 131.209 95.666 128.694Z" fill="#E6BE27"/>
<path d="M118.404 21.0305L121.626 17.8093L128.068 24.2518L124.847 27.4731L118.404 21.0305Z" fill="#4A4A4A"/>
<path d="M136.926 39.555L140.147 36.3338L146.59 42.7763L143.368 45.9975L136.926 39.555Z" fill="#4A4A4A"/>
<path d="M117.597 42.7693L124.039 36.3267L127.26 39.548L120.818 45.9905L117.597 42.7693Z" fill="#4A4A4A"/>
<path d="M136.12 24.2512L142.563 17.8087L145.784 21.03L139.341 27.4725L136.12 24.2512Z" fill="#4A4A4A"/>
<path d="M71.7507 123H39.8618C32.951 123 27.334 117.383 27.334 110.472V53.5278C27.334 46.617 32.951 41 39.8618 41H48.9729V47.8333H39.8618C36.723 47.8333 34.1673 50.389 34.1673 53.5278V110.472C34.1673 113.611 36.723 116.167 39.8618 116.167H71.7507V123Z" fill="black"/>
<path d="M104.778 62.6389H97.9443V53.5278C97.9443 50.389 95.3886 47.8333 92.2498 47.8333H83.1387V41H92.2498C99.1606 41 104.778 46.617 104.778 53.5278V62.6389Z" fill="black"/>
<path d="M78.5844 56.9443H53.5289C49.1328 56.9443 45.5566 53.3682 45.5566 48.9721V39.861C45.5566 37.975 47.0873 36.4443 48.9733 36.4443H54.0026C55.4923 31.1917 60.3349 27.3332 66.0566 27.3332C71.7784 27.3332 76.621 31.1917 78.1106 36.4443H83.14C85.026 36.4443 86.5566 37.975 86.5566 39.861V48.9721C86.5566 53.3682 82.9805 56.9443 78.5844 56.9443ZM52.39 43.2776V48.9721C52.39 49.6007 52.9002 50.111 53.5289 50.111H78.5844C79.2131 50.111 79.7233 49.6007 79.7233 48.9721V43.2776H75.1678C73.2818 43.2776 71.7511 41.747 71.7511 39.861C71.7511 36.7222 69.1954 34.1665 66.0566 34.1665C62.9179 34.1665 60.3622 36.7222 60.3622 39.861C60.3622 41.747 58.8315 43.2776 56.9455 43.2776H52.39Z" fill="black"/>
<path d="M128.694 136.666H89.9722C85.5761 136.666 82 133.09 82 128.694V80.8608C82 76.4647 85.5761 72.8885 89.9722 72.8885H128.694C133.091 72.8885 136.667 76.4647 136.667 80.8608V128.694C136.667 133.09 133.091 136.666 128.694 136.666ZM89.9722 79.7219C89.3436 79.7219 88.8333 80.2321 88.8333 80.8608V128.694C88.8333 129.323 89.3436 129.833 89.9722 129.833H128.694C129.323 129.833 129.833 129.323 129.833 128.694V80.8608C129.833 80.2321 129.323 79.7219 128.694 79.7219H89.9722Z" fill="black"/>
<path d="M98.5137 97.9446H119.014V104.778H98.5137V97.9446Z" fill="black"/>
<path d="M98.5137 111.611H119.014V118.444H98.5137V111.611Z" fill="black"/>
</svg>
