<svg width="164" height="164" viewBox="0 0 164 164" fill="none" xmlns="http://www.w3.org/2000/svg">
<path d="M36.9635 25.3471C28.7407 55.7646 7.33415 72.3924 3.37082 87.0521C-0.592517 101.712 -0.487742 134.772 66.9436 153.003C134.375 171.234 155.467 132.498 159.822 116.372C180.236 40.877 51.5276 -28.5269 36.9635 25.3471Z" fill="#2C2C2C"/>
<path d="M82 133.25C110.305 133.25 133.25 110.305 133.25 82C133.25 53.6954 110.305 30.75 82 30.75C53.6954 30.75 30.75 53.6954 30.75 82C30.75 110.305 53.6954 133.25 82 133.25Z" fill="#EFD575"/>
<path d="M41 82C41 55.4274 61.2267 33.579 87.125 31.0097C85.4394 30.8411 83.7311 30.75 82 30.75C53.6963 30.75 30.75 53.6963 30.75 82C30.75 110.304 53.6963 133.25 82 133.25C83.7311 133.25 85.4394 133.159 87.125 132.99C61.2267 130.421 41 108.573 41 82Z" fill="#E6BE27"/>
<path d="M81.9989 113.889C84.5149 113.889 86.5544 111.849 86.5544 109.333C86.5544 106.817 84.5149 104.778 81.9989 104.778C79.4829 104.778 77.4434 106.817 77.4434 109.333C77.4434 111.849 79.4829 113.889 81.9989 113.889Z" fill="#F3F3F1"/>
<path d="M36.3105 25.7791L42.7531 19.3365L45.9743 22.5578L39.5318 29.0003L36.3105 25.7791Z" fill="#4A4A4A"/>
<path d="M17.7871 44.2988L24.2296 37.8563L27.4509 41.0775L21.0084 47.5201L17.7871 44.2988Z" fill="#4A4A4A"/>
<path d="M17.792 21.7485L21.0133 18.5272L27.4558 24.9697L24.2345 28.191L17.792 21.7485Z" fill="#4A4A4A"/>
<path d="M82.0013 116.167C78.2339 116.167 75.168 113.101 75.168 109.333C75.168 105.566 78.2339 102.5 82.0013 102.5C85.7688 102.5 88.8346 105.566 88.8346 109.333C88.8346 113.101 85.7688 116.167 82.0013 116.167ZM82.0013 107.056C80.7485 107.056 79.7235 108.076 79.7235 109.333C79.7235 110.591 80.7485 111.611 82.0013 111.611C83.2541 111.611 84.2791 110.591 84.2791 109.333C84.2791 108.076 83.2541 107.056 82.0013 107.056Z" fill="black"/>
<path d="M82.0006 136.667C51.8565 136.667 27.334 112.144 27.334 81.9999C27.334 51.8558 51.8565 27.3333 82.0006 27.3333C112.145 27.3333 136.667 51.8558 136.667 81.9999C136.667 112.144 112.145 136.667 82.0006 136.667ZM82.0006 34.1666C55.624 34.1666 34.1673 55.6233 34.1673 81.9999C34.1673 108.377 55.624 129.833 82.0006 129.833C108.377 129.833 129.834 108.377 129.834 81.9999C129.834 55.6233 108.377 34.1666 82.0006 34.1666Z" fill="black"/>
<path d="M85.4165 91.111H78.5831V86.5099C78.5831 82.173 81.3347 78.2871 85.4256 76.843C90.8695 74.9251 94.5276 69.1259 94.5276 64.9166C94.5276 58.0058 88.9106 52.3888 81.9998 52.3888C75.089 52.3888 69.472 58.0058 69.472 64.9166H62.6387C62.6387 54.2429 71.3216 45.5555 81.9998 45.5555C92.678 45.5555 101.361 54.2429 101.361 64.9166C101.361 72.5153 95.3612 80.5831 87.6988 83.2891C86.3321 83.7675 85.4165 85.0658 85.4165 86.5145V91.111Z" fill="black"/>
</svg>
