<svg width="163" height="164" viewBox="0 0 163 164" fill="none" xmlns="http://www.w3.org/2000/svg">
<path d="M123.638 17.8303C92.4543 18.4179 70.7318 2.50083 55.706 2.78783C40.6803 3.07483 9.27582 12.3955 10.5701 82.2367C11.8643 152.078 54.511 161.522 71.043 161.212C148.44 159.749 178.871 16.7871 123.638 17.8303Z" fill="#2C2C2C"/>
<path d="M81.1718 133.25C109.19 133.25 131.904 110.305 131.904 82C131.904 53.6954 109.19 30.75 81.1718 30.75C53.1531 30.75 30.4395 53.6954 30.4395 82C30.4395 110.305 53.1531 133.25 81.1718 133.25Z" fill="#EFD575"/>
<path d="M40.5859 82C40.5859 55.4274 60.6083 33.579 86.245 31.0097C84.5765 30.8411 82.8854 30.75 81.1718 30.75C53.154 30.75 30.4395 53.6963 30.4395 82C30.4395 110.304 53.154 133.25 81.1718 133.25C82.8854 133.25 84.5765 133.159 86.245 132.99C60.6083 130.421 40.5859 108.573 40.5859 82Z" fill="#E6BE27"/>
<path d="M81.1726 113.889C83.6632 113.889 85.6822 111.849 85.6822 109.333C85.6822 106.817 83.6632 104.778 81.1726 104.778C78.6821 104.778 76.6631 106.817 76.6631 109.333C76.6631 111.849 78.6821 113.889 81.1726 113.889Z" fill="#F3F3F1"/>
<path d="M135.287 41C131.557 41 128.522 37.9341 128.522 34.1667C128.522 30.3993 131.557 27.3334 135.287 27.3334C139.016 27.3334 142.051 30.3993 142.051 34.1667C142.051 37.9341 139.016 41 135.287 41ZM135.287 31.8889C134.042 31.8889 133.032 32.9094 133.032 34.1667C133.032 35.424 134.042 36.4445 135.287 36.4445C136.531 36.4445 137.542 35.424 137.542 34.1667C137.542 32.9094 136.531 31.8889 135.287 31.8889Z" fill="#4A4A4A"/>
<path d="M81.1725 116.167C77.4431 116.167 74.4082 113.101 74.4082 109.333C74.4082 105.566 77.4431 102.5 81.1725 102.5C84.9019 102.5 87.9368 105.566 87.9368 109.333C87.9368 113.101 84.9019 116.167 81.1725 116.167ZM81.1725 107.056C79.9279 107.056 78.9177 108.076 78.9177 109.333C78.9177 110.591 79.9279 111.611 81.1725 111.611C82.4172 111.611 83.4273 110.591 83.4273 109.333C83.4273 108.076 82.4172 107.056 81.1725 107.056Z" fill="black"/>
<path d="M77.79 53.5278H84.5543V92.25H77.79V53.5278Z" fill="black"/>
<path d="M81.1721 136.667C51.3325 136.667 27.0576 112.144 27.0576 82C27.0576 51.8559 51.3325 27.3334 81.1721 27.3334C111.012 27.3334 135.287 51.8559 135.287 82C135.287 112.144 111.012 136.667 81.1721 136.667ZM81.1721 34.1667C55.0619 34.1667 33.8219 55.6234 33.8219 82C33.8219 108.377 55.0619 129.833 81.1721 129.833C107.282 129.833 128.522 108.377 128.522 82C128.522 55.6234 107.282 34.1667 81.1721 34.1667Z" fill="black"/>
</svg>
