<svg width="265" height="326" viewBox="0 0 265 326" fill="none" xmlns="http://www.w3.org/2000/svg">
<ellipse cx="141.664" cy="313.121" rx="93.2252" ry="12.8785" fill="#222222"/>
<path d="M200.158 116.132C226.176 148.395 212.557 187.039 166.275 210.107C120.63 232.866 127.412 294.77 93.6288 284.92C39.7726 269.216 33.0724 178.381 80.6472 122.013C119.565 75.8852 177.7 88.2842 200.158 116.132Z" fill="#262626"/>
<path d="M154.296 206.905L154.296 206.906C131.758 218.143 121.831 238.786 113.751 255.586C113.522 256.061 113.296 256.533 113.07 257.001C108.932 265.59 105.258 272.94 100.577 277.568C98.2607 279.859 95.7274 281.449 92.7994 282.19C89.8701 282.932 86.4658 282.845 82.376 281.653C56.0058 273.964 41.0087 247.828 38.5657 216.332C36.1248 184.863 46.2687 148.325 69.8787 120.351L69.8788 120.351C108.357 74.7444 165.749 87.0524 187.847 114.453C200.661 130.343 203.662 147.709 197.855 163.924C192.031 180.183 177.289 195.445 154.296 206.905Z" stroke="#A4A4A4" stroke-width="2"/>
<path d="M152.981 136.069L150.375 129.273C152.157 127.357 153.368 124.884 153.694 122.091C154.519 115.102 149.52 108.767 142.532 107.95C135.543 107.126 129.208 112.124 128.391 119.113C127.566 126.102 132.565 132.437 139.553 133.254C141.796 133.521 143.973 133.18 145.918 132.37L152.981 136.069Z" fill="#262626"/>
<path d="M152.982 136.217C152.959 136.217 152.93 136.209 152.907 136.202L145.911 132.54C143.906 133.365 141.7 133.662 139.531 133.402C136.107 133.001 133.047 131.285 130.916 128.582C128.784 125.878 127.826 122.507 128.235 119.083C128.636 115.659 130.352 112.599 133.055 110.467C135.758 108.336 139.13 107.378 142.554 107.786C145.978 108.187 149.038 109.903 151.169 112.606C153.301 115.31 154.259 118.682 153.85 122.105C153.531 124.816 152.395 127.304 150.553 129.302L153.13 136.009C153.152 136.068 153.137 136.135 153.086 136.18C153.056 136.209 153.019 136.217 152.982 136.217ZM145.918 132.214C145.941 132.214 145.97 132.221 145.993 132.228L152.692 135.734L150.234 129.325C150.211 129.273 150.226 129.206 150.263 129.161C152.098 127.193 153.227 124.742 153.546 122.068C153.94 118.726 153.011 115.436 150.924 112.799C148.837 110.163 145.859 108.492 142.517 108.098C139.175 107.705 135.885 108.633 133.248 110.72C130.611 112.799 128.94 115.785 128.547 119.127C128.153 122.469 129.081 125.76 131.168 128.396C133.248 131.033 136.234 132.704 139.576 133.097C141.715 133.35 143.891 133.045 145.866 132.228C145.881 132.221 145.896 132.214 145.918 132.214Z" fill="#FCF8E9"/>
<path d="M165.051 260.257C171.634 255.196 174.446 247.81 171.333 243.76C168.219 239.71 160.359 240.529 153.776 245.59C147.193 250.651 144.381 258.037 147.494 262.087C150.608 266.137 158.468 265.317 165.051 260.257Z" fill="#2C2C2C"/>
<path d="M167.092 240.22C168.503 242.056 168.618 244.712 167.516 247.607C166.417 250.493 164.132 253.533 160.902 256.016C157.671 258.499 154.146 259.927 151.075 260.247C147.994 260.568 145.457 259.774 144.046 257.938C142.634 256.102 142.519 253.446 143.621 250.551C144.72 247.666 147.006 244.626 150.236 242.142C153.466 239.659 156.991 238.232 160.062 237.912C163.143 237.59 165.68 238.384 167.092 240.22Z" stroke="#A4A4A4"/>
<g filter="url(#filter0_d)">
<path d="M225.826 237.7H166.952C163.907 237.7 161.434 235.226 161.434 232.181V124.995C161.434 121.95 163.907 119.477 166.952 119.477H225.826C228.871 119.477 231.344 121.95 231.344 124.995V232.181C231.344 235.226 228.871 237.7 225.826 237.7Z" fill="#262626"/>
</g>
<path d="M225.825 237.855H166.952C163.825 237.855 161.277 235.308 161.277 232.181V124.995C161.277 121.868 163.825 119.32 166.952 119.32H225.825C228.952 119.32 231.499 121.868 231.499 124.995V232.181C231.499 235.308 228.952 237.855 225.825 237.855ZM166.952 119.632C163.996 119.632 161.589 122.039 161.589 124.995V232.181C161.589 235.137 163.996 237.543 166.952 237.543H225.825C228.781 237.543 231.188 235.137 231.188 232.181V124.995C231.188 122.039 228.781 119.632 225.825 119.632H166.952Z" fill="#1D1D1D"/>
<path d="M214.699 198.351H178.07C176.109 198.351 174.52 196.762 174.52 194.801C174.52 192.84 176.109 191.251 178.07 191.251H214.699C216.66 191.251 218.25 192.84 218.25 194.801C218.25 196.762 216.66 198.351 214.699 198.351Z" fill="#E6BE27"/>
<path d="M214.409 197.631H178.433C176.91 197.631 175.67 196.39 175.67 194.868C175.67 193.345 176.91 192.105 178.433 192.105H214.409C215.932 192.105 217.172 193.345 217.172 194.868C217.172 196.39 215.939 197.631 214.409 197.631ZM178.433 192.291C177.014 192.291 175.856 193.449 175.856 194.868C175.856 196.286 177.014 197.445 178.433 197.445H214.409C215.828 197.445 216.986 196.286 216.986 194.868C216.986 193.449 215.828 192.291 214.409 192.291H178.433Z" fill="#222222"/>
<path d="M214.811 144.617H177.096C177.007 144.617 176.94 144.55 176.94 144.461V140.346C176.94 140.257 177.007 140.19 177.096 140.19H214.811C214.9 140.19 214.967 140.257 214.967 140.346V144.461C214.959 144.542 214.892 144.617 214.811 144.617ZM177.252 144.305H214.655V140.502H177.252V144.305Z" fill="#D2D2D2"/>
<path d="M231.343 127.052H161.426C161.336 127.052 161.27 126.985 161.27 126.896C161.27 126.807 161.336 126.74 161.426 126.74H231.343C231.432 126.74 231.499 126.807 231.499 126.896C231.499 126.985 231.432 127.052 231.343 127.052Z" fill="#D2D2D2"/>
<path d="M167.093 125.5C166.046 125.5 165.191 124.646 165.191 123.598C165.191 122.551 166.046 121.697 167.093 121.697C168.14 121.697 168.994 122.551 168.994 123.598C168.994 124.646 168.14 125.5 167.093 125.5ZM167.093 121.994C166.216 121.994 165.496 122.707 165.496 123.591C165.496 124.475 166.209 125.188 167.093 125.188C167.969 125.188 168.69 124.475 168.69 123.591C168.69 122.707 167.969 121.994 167.093 121.994Z" fill="#E6BE27"/>
<path d="M172.723 125.5C171.675 125.5 170.821 124.646 170.821 123.598C170.821 122.551 171.675 121.697 172.723 121.697C173.77 121.697 174.624 122.551 174.624 123.598C174.624 124.646 173.77 125.5 172.723 125.5ZM172.723 121.994C171.846 121.994 171.126 122.707 171.126 123.591C171.126 124.475 171.839 125.188 172.723 125.188C173.599 125.188 174.319 124.475 174.319 123.591C174.319 122.707 173.599 121.994 172.723 121.994Z" fill="#E6BE27"/>
<path d="M178.137 125.5C177.089 125.5 176.235 124.646 176.235 123.598C176.235 122.551 177.089 121.697 178.137 121.697C179.184 121.697 180.038 122.551 180.038 123.598C180.038 124.646 179.184 125.5 178.137 125.5ZM178.137 121.994C177.26 121.994 176.54 122.707 176.54 123.591C176.54 124.475 177.253 125.188 178.137 125.188C179.013 125.188 179.733 124.475 179.733 123.591C179.733 122.707 179.013 121.994 178.137 121.994Z" fill="#E6BE27"/>
<path d="M206.633 184.782H184.471C184.382 184.782 184.315 184.715 184.315 184.626V162.471C184.315 162.382 184.382 162.315 184.471 162.315H206.633C206.723 162.315 206.789 162.382 206.789 162.471V184.633C206.789 184.715 206.715 184.782 206.633 184.782ZM184.627 184.47H206.478V162.62H184.627V184.47Z" fill="#E8E8E8"/>
<path d="M209.701 184.782H206.634C206.544 184.782 206.478 184.715 206.478 184.626V162.471C206.478 162.382 206.544 162.315 206.634 162.315H209.701C209.79 162.315 209.857 162.382 209.857 162.471V184.633C209.857 184.715 209.79 184.782 209.701 184.782ZM206.789 184.47H209.552V162.62H206.789V184.47Z" fill="#E8E8E8"/>
<path d="M203.855 162.471H202.92V157.02C202.92 154.004 200.469 151.546 197.446 151.546C194.423 151.546 191.972 153.997 191.972 157.02V162.464H191.044V157.02C191.044 153.492 193.918 150.618 197.446 150.618C200.974 150.618 203.848 153.492 203.848 157.02V162.471H203.855Z" fill="#E6BE27"/>
<path d="M197.18 173.263C197.834 172.773 198.257 171.986 198.257 171.102C198.257 169.609 197.046 168.398 195.554 168.398C194.061 168.398 192.85 169.609 192.85 171.102C192.85 171.986 193.273 172.765 193.927 173.263L192.635 178.261H195.554H198.472L197.18 173.263Z" fill="#1D1D1D"/>
<path d="M198.464 178.409H192.634C192.59 178.409 192.538 178.387 192.508 178.35C192.478 178.313 192.471 178.261 192.478 178.216L193.741 173.322C193.065 172.78 192.686 171.978 192.686 171.101C192.686 169.527 193.971 168.242 195.546 168.242C197.12 168.242 198.405 169.527 198.405 171.101C198.405 171.97 198.019 172.772 197.35 173.322L198.613 178.216C198.628 178.261 198.613 178.313 198.583 178.35C198.561 178.387 198.516 178.409 198.464 178.409ZM192.835 178.098H198.264L197.024 173.292C197.009 173.233 197.031 173.166 197.083 173.129C197.729 172.646 198.101 171.903 198.101 171.094C198.101 169.69 196.957 168.546 195.553 168.546C194.149 168.546 193.006 169.69 193.006 171.094C193.006 171.903 193.377 172.639 194.023 173.129C194.075 173.166 194.097 173.233 194.083 173.292L192.835 178.098Z" fill="#262626"/>
<path d="M215.346 207.523H177.431C177.067 207.523 176.777 207.234 176.777 206.87C176.777 206.506 177.067 206.216 177.431 206.216H215.346C215.71 206.216 215.999 206.506 215.999 206.87C215.999 207.234 215.71 207.523 215.346 207.523Z" fill="#1D1D1D"/>
<path d="M215.346 213.792H177.431C177.067 213.792 176.777 213.502 176.777 213.138C176.777 212.774 177.067 212.484 177.431 212.484H215.346C215.71 212.484 215.999 212.774 215.999 213.138C215.999 213.502 215.71 213.792 215.346 213.792Z" fill="#1D1D1D"/>
<path d="M215.346 220.067H177.431C177.067 220.067 176.777 219.778 176.777 219.414C176.777 219.05 177.067 218.76 177.431 218.76H215.346C215.71 218.76 215.999 219.05 215.999 219.414C215.999 219.77 215.71 220.067 215.346 220.067Z" fill="#1D1D1D"/>
<path d="M173.695 204.672H169.306V209.061H173.695V204.672Z" fill="#2C2C2C"/>
<path d="M173.695 209.217H169.305C169.216 209.217 169.149 209.15 169.149 209.061V204.671C169.149 204.582 169.216 204.515 169.305 204.515H173.695C173.784 204.515 173.851 204.582 173.851 204.671V209.061C173.851 209.15 173.776 209.217 173.695 209.217ZM169.461 208.905H173.539V204.827H169.461V208.905Z" fill="#E6BE27"/>
<path d="M173.695 210.948H169.306V215.337H173.695V210.948Z" fill="#2C2C2C"/>
<path d="M173.695 215.492H169.305C169.216 215.492 169.149 215.426 169.149 215.336V210.947C169.149 210.858 169.216 210.791 169.305 210.791H173.695C173.784 210.791 173.851 210.858 173.851 210.947V215.336C173.851 215.418 173.776 215.492 173.695 215.492ZM169.461 215.18H173.539V211.103H169.461V215.18Z" fill="#E6BE27"/>
<path d="M173.695 217.216H169.306V221.605H173.695V217.216Z" fill="#2C2C2C"/>
<path d="M173.695 221.761H169.305C169.216 221.761 169.149 221.694 169.149 221.605V217.215C169.149 217.126 169.216 217.059 169.305 217.059H173.695C173.784 217.059 173.851 217.126 173.851 217.215V221.605C173.851 221.694 173.776 221.761 173.695 221.761ZM169.461 221.449H173.539V217.371H169.461V221.449Z" fill="#E6BE27"/>
<path d="M152.959 220.142L156.397 226.358C156.397 226.358 158.752 232.678 159.101 234.788C159.101 234.788 157.742 235.226 156.687 231.772L158.752 239.422C158.752 239.422 158.952 240.625 158.284 240.455C158.284 240.455 157.927 242.155 157.073 241.687C156.709 242.267 155.87 242.274 155.499 241.702L144.484 224.739L152.959 220.142Z" fill="#C0925C"/>
<path d="M146.111 178.588L149.877 205.154L155.12 224.048L149.379 231.156L137.214 198.009L146.111 178.588Z" fill="#C0925C"/>
<path d="M136.308 157.621C136.308 157.621 145.547 156.158 147.686 166.623L148.629 179.553C148.629 179.553 137.11 186.72 137.229 186.371C137.347 186.022 136.308 157.621 136.308 157.621Z" fill="#E6BE27"/>
<path d="M157.52 174.065L166.982 167.856L168.526 170.032L167.487 170.641L166.536 169.237L165.964 169.675L166.878 170.96L166.15 171.443L165.244 170.01L157.98 174.807L157.52 174.065Z" fill="#E6BE27"/>
<path d="M148.361 311.122L149.134 296.357L138.149 299.44L138.313 307.401L140.467 314.613L147.322 314.294L148.361 311.122Z" fill="#C0925C"/>
<path d="M138.424 315.415L158.113 315.512C157.809 313.967 157.267 312.036 151.942 311.063L148.533 307.75C148.533 307.75 147.114 310.409 144.173 310.313C140.103 310.186 138.306 307.401 138.306 307.401L138.424 315.415Z" fill="#E6BE27"/>
<path d="M157.348 313.722H138.394C138.305 313.722 138.238 313.655 138.238 313.566C138.238 313.477 138.305 313.41 138.394 313.41H157.348C157.437 313.41 157.504 313.477 157.504 313.566C157.504 313.655 157.437 313.722 157.348 313.722Z" fill="#FFEFD3"/>
<path d="M144.485 204.486L155.833 253.251L152.075 302.73H136.189L132.921 230.681L128.947 203.557L144.485 204.486Z" fill="#1D1D1D"/>
<path d="M132.164 311.122L132.929 296.357L121.944 299.44L122.115 307.401L124.262 314.613L131.124 314.294L132.164 311.122Z" fill="#C0925C"/>
<path d="M122.218 315.415L141.907 315.512C141.603 313.967 141.061 312.036 135.736 311.063L132.327 307.75C132.327 307.75 130.908 310.409 127.967 310.313C123.897 310.186 122.1 307.401 122.1 307.401L122.218 315.415Z" fill="#E6BE27"/>
<path d="M117.132 246.04C117.132 246.04 111.784 267.979 119.263 302.737H136.189L138.15 246.983L136.405 201.894L113.834 199.97L117.132 246.04Z" fill="#1D1D1D"/>
<path d="M146.111 204.902C146.111 204.902 140.816 208.704 125.798 208.214C114.153 207.835 111.791 206.253 111.791 206.253L116.284 170.99C118.275 162.182 120.689 157.064 126.92 156.752C139.226 156.091 145.695 161.157 145.212 169.958L144.21 179.932L146.111 204.902Z" fill="#E8E8E8"/>
<path d="M139.064 146.978C139.495 147.372 139.829 148.702 139.443 151.947C139.212 153.886 137.764 155.222 135.15 155.312C132.053 155.416 130.486 153.967 130.27 151.308C129.082 151.427 127.389 150.313 128.347 148.486C129.178 146.897 130.322 148.687 130.322 148.687L130.389 145.783C131.362 144.572 137.898 142.478 139.064 146.978Z" fill="#C0925C"/>
<path d="M130.411 147.001C130.411 147.001 131.005 146.897 131.51 145.523C132.595 147.12 135.625 148.39 138.514 148.62C142.896 148.976 144.931 144.223 143.364 140.918C142.532 139.165 141.834 138.905 136.888 137.947C132.706 137.138 130.686 140.368 130.686 140.368C128.473 139.715 126.512 142.879 128.064 145.701C128.398 146.533 128.384 146.889 129.104 147.825C129.631 148.508 129.81 149.281 130.359 149.608L130.411 147.001Z" fill="#493030"/>
<path d="M130.04 150.67C129.995 150.67 129.951 150.647 129.913 150.61L128.792 149.169C128.74 149.103 128.755 149.006 128.822 148.954C128.889 148.902 128.985 148.917 129.037 148.984L130.159 150.425C130.211 150.491 130.196 150.588 130.129 150.64C130.107 150.662 130.069 150.67 130.04 150.67Z" fill="#A87F4E"/>
<path d="M131.302 145.619C131.235 145.619 131.16 145.582 131.123 145.523C131.064 145.426 129.601 143.213 130.477 140.309C130.514 140.198 130.633 140.131 130.745 140.161C130.856 140.198 130.923 140.316 130.893 140.428C130.076 143.131 131.465 145.248 131.48 145.27C131.547 145.367 131.517 145.508 131.42 145.575C131.383 145.604 131.346 145.619 131.302 145.619Z" fill="#3C2424"/>
<path d="M109.355 174.807L101.787 197.163C100.324 200.237 104.439 208.816 112.668 206.469L157.772 182.019L154.14 175.342L119.293 189.446L123.288 178.922L109.355 174.807Z" fill="#C0925C"/>
<path d="M122.055 158.112C118.498 157.554 114.495 158.713 111.041 168.004L107.862 176.233C107.862 176.233 107.862 179.33 113.165 181.937C118.735 184.678 123.117 181.937 123.117 181.937L127.046 169.46C127.046 169.46 129.794 159.33 122.055 158.112Z" fill="#E6BE27"/>
<path d="M154.14 175.342L159.391 172.676L160.586 172.594C161.871 172.505 162.97 173.522 162.97 174.807C162.97 174.807 163.639 175.632 163.483 176.575C163.483 176.575 164.07 177.362 163.795 178.335C163.795 178.335 164.5 178.885 163.988 180.058L157.764 182.019L154.14 175.342Z" fill="#C0925C"/>
<path d="M119.717 180.645C118.929 180.645 118.15 180.563 117.385 180.407C115.714 180.058 114.102 179.338 112.587 178.261C110.01 176.426 108.584 174.161 108.569 174.139C108.524 174.065 108.546 173.968 108.621 173.923C108.695 173.879 108.792 173.901 108.836 173.975C108.851 173.998 110.247 176.218 112.78 178.016C115.105 179.665 118.9 181.291 123.75 179.65C123.831 179.62 123.92 179.665 123.943 179.746C123.972 179.828 123.928 179.917 123.846 179.939C122.45 180.415 121.068 180.645 119.717 180.645Z" fill="#FFEFD3"/>
<path d="M127.299 205.31C121.194 205.31 116.278 204.686 116.226 204.679C116.144 204.671 116.077 204.59 116.092 204.508C116.099 204.426 116.181 204.367 116.263 204.374C116.315 204.382 121.217 204.998 127.299 204.998C127.322 204.998 127.344 204.998 127.366 204.998C133.003 204.991 140.816 204.441 146.045 201.827C146.119 201.79 146.216 201.819 146.253 201.894C146.29 201.968 146.26 202.064 146.186 202.102C143.847 203.268 140.816 204.129 137.177 204.664C134.273 205.087 130.968 205.303 127.366 205.31C127.344 205.31 127.322 205.31 127.299 205.31Z" fill="#D2D2D2"/>
<path d="M126.615 302.886C126.608 302.886 126.608 302.886 126.615 302.886C126.526 302.886 126.459 302.811 126.459 302.73L128.048 246.047L123.644 208.154C123.637 208.073 123.696 207.991 123.778 207.984C123.86 207.976 123.941 208.036 123.949 208.117L128.36 246.025C128.36 246.032 128.36 246.04 128.36 246.047L126.771 302.745C126.764 302.819 126.697 302.886 126.615 302.886Z" fill="#A4A4A4"/>
<path d="M141.151 313.722H122.197C122.108 313.722 122.041 313.655 122.041 313.566C122.041 313.477 122.108 313.41 122.197 313.41H141.151C141.24 313.41 141.307 313.477 141.307 313.566C141.307 313.655 141.232 313.722 141.151 313.722Z" fill="#FFEFD3"/>
<path d="M141.908 315.668C141.834 315.668 141.767 315.608 141.752 315.534C141.581 314.212 140.965 313.194 139.917 312.526C139.13 312.021 138.38 311.91 138.373 311.91C138.291 311.895 138.231 311.82 138.239 311.731C138.254 311.65 138.328 311.59 138.417 311.598C138.447 311.605 139.234 311.716 140.073 312.251C140.853 312.749 141.834 313.714 142.064 315.489C142.071 315.571 142.012 315.653 141.93 315.66C141.923 315.668 141.915 315.668 141.908 315.668Z" fill="#FFEFD3"/>
<path d="M143.639 302.886C143.549 302.886 143.483 302.811 143.483 302.73L144.708 255.45L137.066 222.949C137.043 222.867 137.095 222.786 137.185 222.763C137.266 222.741 137.348 222.793 137.37 222.882L145.02 255.405C145.02 255.42 145.027 255.435 145.027 255.442L143.802 302.745C143.795 302.819 143.72 302.886 143.639 302.886Z" fill="#A4A4A4"/>
<path d="M124.714 216.22C124.64 216.22 124.581 216.168 124.566 216.101C124.543 216.02 124.595 215.938 124.685 215.916C126.801 215.426 128.279 214.46 129.081 213.041C130.307 210.865 129.505 208.34 129.497 208.31C129.467 208.229 129.512 208.14 129.594 208.117C129.675 208.088 129.765 208.132 129.787 208.214C129.824 208.325 130.641 210.888 129.349 213.19C128.502 214.69 126.957 215.708 124.751 216.22C124.737 216.213 124.722 216.22 124.714 216.22Z" fill="#A4A4A4"/>
<path d="M156.309 174.235C156.309 174.235 157.876 172.379 159.153 171.673C160.431 170.968 159.784 173.322 159.784 173.322L156.309 174.235Z" fill="#C0925C"/>
<path d="M153.353 233.852C152.796 233.852 152.246 233.703 151.719 233.406C151.645 233.362 151.615 233.273 151.66 233.198C151.704 233.124 151.793 233.094 151.868 233.139C152.937 233.74 154.044 233.681 155.165 232.975C156.019 232.433 156.554 231.705 156.561 231.698C156.613 231.631 156.71 231.616 156.777 231.661C156.844 231.713 156.858 231.809 156.814 231.876C156.792 231.906 156.242 232.656 155.343 233.228C154.682 233.636 154.014 233.852 153.353 233.852Z" fill="#A87F4E"/>
<path d="M158.285 240.61C158.225 240.61 158.173 240.581 158.144 240.529L154.98 234.453C154.943 234.379 154.972 234.283 155.047 234.246C155.121 234.208 155.218 234.238 155.255 234.312L158.419 240.388C158.456 240.462 158.426 240.558 158.352 240.596C158.337 240.61 158.307 240.61 158.285 240.61Z" fill="#A87F4E"/>
<path d="M156.724 241.413C156.68 241.413 156.628 241.398 156.576 241.331C156.553 241.301 156.538 241.257 156.538 241.219C156.271 240.677 154.474 237.595 153.263 235.538C153.219 235.464 153.241 235.367 153.315 235.322C153.389 235.278 153.486 235.3 153.53 235.374C153.538 235.389 154.385 236.83 155.216 238.256C155.707 239.095 156.085 239.764 156.36 240.246C156.524 240.536 156.65 240.759 156.732 240.915C156.88 241.19 156.932 241.294 156.806 241.375C156.806 241.39 156.769 241.413 156.724 241.413Z" fill="#A87F4E"/>
<path d="M115.482 192.35C115.438 192.35 115.386 192.328 115.356 192.283C115.304 192.216 115.319 192.12 115.393 192.068L119.203 189.32C119.27 189.268 119.367 189.283 119.419 189.357C119.471 189.424 119.456 189.52 119.381 189.572L115.571 192.32C115.542 192.343 115.512 192.35 115.482 192.35Z" fill="#A87F4E"/>
<path d="M144.9 189.149C144.848 189.149 144.789 189.119 144.767 189.067C144.73 188.993 144.752 188.896 144.826 188.859L147.128 187.611C147.203 187.567 147.299 187.597 147.336 187.671C147.374 187.745 147.351 187.842 147.277 187.879L144.975 189.127C144.952 189.141 144.93 189.149 144.9 189.149Z" fill="#A87F4E"/>
<path d="M162.027 175.357C161.968 175.357 161.909 175.32 161.886 175.26C161.857 175.179 161.894 175.09 161.968 175.06L162.919 174.659C163 174.629 163.089 174.666 163.119 174.741C163.149 174.822 163.112 174.911 163.037 174.941L162.087 175.342C162.064 175.357 162.042 175.357 162.027 175.357Z" fill="#A87F4E"/>
<path d="M162.502 177.065C162.436 177.065 162.376 177.028 162.354 176.961C162.324 176.88 162.369 176.79 162.451 176.761L163.431 176.426C163.513 176.397 163.602 176.441 163.631 176.523C163.661 176.605 163.617 176.694 163.535 176.724L162.554 177.058C162.532 177.058 162.517 177.065 162.502 177.065Z" fill="#A87F4E"/>
<path d="M157.519 173.656C157.459 173.656 157.4 173.619 157.378 173.567C157.341 173.485 157.378 173.396 157.459 173.359L159.331 172.535C159.413 172.498 159.502 172.535 159.539 172.616C159.576 172.698 159.539 172.787 159.457 172.824L157.586 173.649C157.563 173.649 157.541 173.656 157.519 173.656Z" fill="#A87F4E"/>
<path d="M162.971 178.744C162.904 178.744 162.844 178.699 162.822 178.632C162.8 178.551 162.844 178.461 162.926 178.439L163.751 178.187C163.832 178.164 163.921 178.209 163.944 178.291C163.966 178.372 163.921 178.461 163.84 178.484L163.015 178.736C163 178.744 162.986 178.744 162.971 178.744Z" fill="#A87F4E"/>
<path d="M141.04 130.417C146.417 130.417 150.776 126.057 150.776 120.68C150.776 115.303 146.417 110.943 141.04 110.943C135.662 110.943 131.303 115.303 131.303 120.68C131.303 126.057 135.662 130.417 141.04 130.417Z" fill="#262626"/>
<path d="M141.039 130.565C135.587 130.565 131.153 126.131 131.153 120.68C131.153 115.228 135.587 110.794 141.039 110.794C146.49 110.794 150.924 115.228 150.924 120.68C150.924 126.131 146.49 130.565 141.039 130.565ZM141.039 111.099C135.758 111.099 131.458 115.399 131.458 120.68C131.458 125.96 135.758 130.26 141.039 130.26C146.319 130.26 150.619 125.96 150.619 120.68C150.619 115.399 146.319 111.099 141.039 111.099Z" fill="#FCF8E9"/>
<path d="M136.953 119.476L140.474 123.591L147.745 113.624" fill="#262626"/>
<path d="M140.474 123.806C140.408 123.806 140.348 123.777 140.311 123.732L136.783 119.617C136.701 119.528 136.716 119.387 136.805 119.313C136.895 119.231 137.036 119.246 137.11 119.335L140.46 123.242L147.567 113.49C147.641 113.394 147.775 113.371 147.872 113.446C147.968 113.52 147.99 113.654 147.916 113.75L140.645 123.725C140.608 123.777 140.541 123.814 140.482 123.814C140.482 123.806 140.482 123.806 140.474 123.806Z" fill="#E6BE27"/>
<g filter="url(#filter1_d)">
<path d="M244.246 264.801H185.373C182.328 264.801 179.854 262.327 179.854 259.282V233.956C179.854 230.911 182.328 228.438 185.373 228.438H244.246C247.291 228.438 249.765 230.911 249.765 233.956V259.282C249.765 262.327 247.299 264.801 244.246 264.801Z" fill="#262626"/>
</g>
<path d="M244.246 264.956H185.372C182.246 264.956 179.698 262.409 179.698 259.282V233.956C179.698 230.829 182.246 228.282 185.372 228.282H244.246C247.373 228.282 249.92 230.829 249.92 233.956V259.282C249.92 262.409 247.373 264.956 244.246 264.956ZM185.372 228.594C182.417 228.594 180.01 231 180.01 233.956V259.282C180.01 262.238 182.417 264.644 185.372 264.644H244.246C247.202 264.644 249.608 262.238 249.608 259.282V233.956C249.608 231 247.202 228.594 244.246 228.594H185.372Z" fill="#1D1D1D"/>
<path d="M249.763 236.013H179.845C179.756 236.013 179.689 235.946 179.689 235.857C179.689 235.768 179.756 235.701 179.845 235.701H249.763C249.852 235.701 249.919 235.768 249.919 235.857C249.919 235.946 249.852 236.013 249.763 236.013Z" fill="#D2D2D2"/>
<path d="M185.512 234.461C184.464 234.461 183.61 233.607 183.61 232.56C183.61 231.512 184.464 230.658 185.512 230.658C186.559 230.658 187.413 231.512 187.413 232.56C187.413 233.607 186.559 234.461 185.512 234.461ZM185.512 230.963C184.635 230.963 183.915 231.676 183.915 232.56C183.915 233.443 184.628 234.156 185.512 234.156C186.388 234.156 187.108 233.443 187.108 232.56C187.108 231.676 186.388 230.963 185.512 230.963Z" fill="#E6BE27"/>
<path d="M191.143 234.461C190.095 234.461 189.241 233.607 189.241 232.56C189.241 231.512 190.095 230.658 191.143 230.658C192.19 230.658 193.044 231.512 193.044 232.56C193.044 233.607 192.19 234.461 191.143 234.461ZM191.143 230.963C190.266 230.963 189.546 231.676 189.546 232.56C189.546 233.443 190.259 234.156 191.143 234.156C192.019 234.156 192.739 233.443 192.739 232.56C192.739 231.676 192.019 230.963 191.143 230.963Z" fill="#E6BE27"/>
<path d="M223.563 244.355C220.839 244.355 218.617 242.134 218.617 239.41C218.617 236.686 220.839 234.464 223.563 234.464C226.287 234.464 228.509 236.686 228.509 239.41C228.509 242.134 226.287 244.355 223.563 244.355ZM223.563 235.256C221.283 235.256 219.409 237.111 219.409 239.41C219.409 241.709 221.264 243.563 223.563 243.563C225.843 243.563 227.717 241.709 227.717 239.41C227.717 237.111 225.843 235.256 223.563 235.256Z" fill="#E6BE27"/>
<path d="M245.916 240.5H183.76V257.27H245.916V240.5Z" fill="#262626"/>
<path d="M245.916 257.425H183.759C183.67 257.425 183.604 257.358 183.604 257.269V240.499C183.604 240.41 183.67 240.343 183.759 240.343H245.916C246.005 240.343 246.072 240.41 246.072 240.499V257.269C246.072 257.351 246.005 257.425 245.916 257.425ZM183.915 257.113H245.76V240.655H183.915V257.113Z" fill="#343434"/>
<path d="M243.525 245.951H186.166V248.305H243.525V245.951Z" fill="#E6BE27"/>
<path d="M243.525 249.642H186.166V251.996H243.525V249.642Z" fill="#1D1D1D"/>
<path d="M93.7739 197.519C92.2737 197.519 91.0557 196.301 91.0557 194.801C91.0557 193.301 92.2737 192.083 93.7739 192.083C95.2742 192.083 96.4922 193.301 96.4922 194.801C96.4922 196.301 95.2742 197.519 93.7739 197.519ZM93.7739 192.521C92.5114 192.521 91.4864 193.546 91.4864 194.808C91.4864 196.071 92.5114 197.096 93.7739 197.096C95.0365 197.096 96.0615 196.071 96.0615 194.808C96.0615 193.546 95.0365 192.521 93.7739 192.521Z" fill="#FCF8E9"/>
<path d="M161.433 113.468C159.933 113.468 158.715 112.25 158.715 110.75C158.715 109.249 159.933 108.031 161.433 108.031C162.933 108.031 164.151 109.249 164.151 110.75C164.151 112.25 162.926 113.468 161.433 113.468ZM161.433 108.462C160.171 108.462 159.146 109.487 159.146 110.75C159.146 112.012 160.171 113.037 161.433 113.037C162.696 113.037 163.721 112.012 163.721 110.75C163.721 109.487 162.688 108.462 161.433 108.462Z" fill="#F7EBBE"/>
<path d="M185.512 275.042C184.012 275.042 182.794 273.824 182.794 272.324C182.794 270.823 184.012 269.605 185.512 269.605C187.012 269.605 188.23 270.823 188.23 272.324C188.23 273.824 187.012 275.042 185.512 275.042ZM185.512 270.036C184.25 270.036 183.225 271.061 183.225 272.324C183.225 273.586 184.25 274.611 185.512 274.611C186.775 274.611 187.8 273.586 187.8 272.324C187.792 271.061 186.767 270.036 185.512 270.036Z" fill="#1D1D1D"/>
<path d="M113.835 134.159C113.716 134.159 113.619 134.063 113.619 133.944V131.887C113.619 131.768 113.716 131.671 113.835 131.671C113.953 131.671 114.05 131.768 114.05 131.887V133.944C114.05 134.063 113.953 134.159 113.835 134.159Z" fill="#FCF8E9"/>
<path d="M113.835 139.797C113.716 139.797 113.619 139.7 113.619 139.581V137.524C113.619 137.405 113.716 137.309 113.835 137.309C113.953 137.309 114.05 137.405 114.05 137.524V139.581C114.05 139.7 113.953 139.797 113.835 139.797Z" fill="#FCF8E9"/>
<path d="M117.689 135.949H115.631C115.513 135.949 115.416 135.853 115.416 135.734C115.416 135.615 115.513 135.519 115.631 135.519H117.689C117.808 135.519 117.904 135.615 117.904 135.734C117.904 135.853 117.808 135.949 117.689 135.949Z" fill="#FCF8E9"/>
<path d="M112.044 135.949H109.987C109.868 135.949 109.771 135.853 109.771 135.734C109.771 135.615 109.868 135.519 109.987 135.519H112.044C112.163 135.519 112.26 135.615 112.26 135.734C112.26 135.853 112.163 135.949 112.044 135.949Z" fill="#FCF8E9"/>
<path d="M243.523 209.826C243.404 209.826 243.308 209.729 243.308 209.61V207.553C243.308 207.434 243.404 207.338 243.523 207.338C243.642 207.338 243.738 207.434 243.738 207.553V209.61C243.746 209.722 243.642 209.826 243.523 209.826Z" fill="#1D1D1D"/>
<path d="M243.523 215.463C243.404 215.463 243.308 215.366 243.308 215.247V213.19C243.308 213.071 243.404 212.975 243.523 212.975C243.642 212.975 243.738 213.071 243.738 213.19V215.247C243.746 215.366 243.642 215.463 243.523 215.463Z" fill="#1D1D1D"/>
<path d="M247.378 211.615H245.321C245.202 211.615 245.105 211.519 245.105 211.4C245.105 211.281 245.202 211.185 245.321 211.185H247.378C247.497 211.185 247.594 211.281 247.594 211.4C247.594 211.519 247.497 211.615 247.378 211.615Z" fill="#1D1D1D"/>
<path d="M241.734 211.615H239.676C239.557 211.615 239.461 211.519 239.461 211.4C239.461 211.281 239.557 211.185 239.676 211.185H241.734C241.852 211.185 241.949 211.281 241.949 211.4C241.949 211.519 241.852 211.615 241.734 211.615Z" fill="#1D1D1D"/>
<path d="M82.7144 215.641C82.5956 215.641 82.499 215.544 82.499 215.426V213.368C82.499 213.249 82.5956 213.153 82.7144 213.153C82.8332 213.153 82.9298 213.249 82.9298 213.368V215.426C82.9372 215.544 82.8407 215.641 82.7144 215.641Z" fill="#FCF8E9"/>
<path d="M82.7144 221.285C82.5956 221.285 82.499 221.189 82.499 221.07V219.013C82.499 218.894 82.5956 218.797 82.7144 218.797C82.8332 218.797 82.9298 218.894 82.9298 219.013V221.07C82.9372 221.189 82.8407 221.285 82.7144 221.285Z" fill="#FCF8E9"/>
<path d="M86.5695 217.431H84.5122C84.3934 217.431 84.2969 217.334 84.2969 217.215C84.2969 217.097 84.3934 217 84.5122 217H86.5695C86.6884 217 86.7849 217.097 86.7849 217.215C86.7849 217.334 86.6884 217.431 86.5695 217.431Z" fill="#FCF8E9"/>
<path d="M80.925 217.431H78.8677C78.7489 217.431 78.6523 217.334 78.6523 217.215C78.6523 217.097 78.7489 217 78.8677 217H80.925C81.0438 217 81.1404 217.097 81.1404 217.215C81.1404 217.334 81.0438 217.431 80.925 217.431Z" fill="#FCF8E9"/>
<path d="M173.607 278.629C173.488 278.629 173.392 278.533 173.392 278.414V276.357C173.392 276.238 173.488 276.141 173.607 276.141C173.726 276.141 173.822 276.238 173.822 276.357V278.414C173.822 278.533 173.726 278.629 173.607 278.629Z" fill="#1D1D1D"/>
<path d="M173.607 284.274C173.488 284.274 173.392 284.177 173.392 284.058V282.001C173.392 281.882 173.488 281.786 173.607 281.786C173.726 281.786 173.822 281.882 173.822 282.001V284.058C173.822 284.177 173.726 284.274 173.607 284.274Z" fill="#1D1D1D"/>
<path d="M177.453 280.427H175.396C175.277 280.427 175.181 280.33 175.181 280.211C175.181 280.092 175.277 279.996 175.396 279.996H177.453C177.572 279.996 177.669 280.092 177.669 280.211C177.669 280.33 177.572 280.427 177.453 280.427Z" fill="#1D1D1D"/>
<path d="M171.817 280.427H169.759C169.64 280.427 169.544 280.33 169.544 280.211C169.544 280.092 169.64 279.996 169.759 279.996H171.817C171.935 279.996 172.032 280.092 172.032 280.211C172.032 280.33 171.935 280.427 171.817 280.427Z" fill="#1D1D1D"/>
<g opacity="0.5">
<circle cx="234.487" cy="99.3018" r="3.05785" fill="#EDD168"/>
<circle cx="245.431" cy="94.1517" r="1.44846" fill="#EDD168"/>
<circle cx="243.982" cy="84.9781" r="3.86255" fill="#EDD168"/>
</g>
<g opacity="0.5">
<circle cx="261.706" cy="173.637" r="1.93128" transform="rotate(30.4789 261.706 173.637)" fill="#EDD168"/>
<circle cx="248.183" cy="180.431" r="3.05785" transform="rotate(30.4789 248.183 180.431)" fill="#EDD168"/>
</g>
<g opacity="0.5">
<circle cx="45.0241" cy="281.335" r="1.93128" transform="rotate(78.5899 45.0241 281.335)" fill="#EDD168"/>
<circle cx="30.9376" cy="275.805" r="3.05785" transform="rotate(78.5899 30.9376 275.805)" fill="#EDD168"/>
</g>
<g opacity="0.5">
<circle cx="37.8406" cy="124.712" r="5.83569" fill="#EDD168"/>
<circle cx="31.8625" cy="88.5595" r="7.25903" fill="#EDD168"/>
<circle cx="56.2012" cy="102.081" r="4.55468" fill="#EDD168"/>
</g>
<circle cx="5.76651" cy="190.679" r="5.76651" fill="#343333"/>
<circle cx="39.02" cy="4.03656" r="4.03656" fill="#343333"/>
<circle cx="236.811" cy="37.6745" r="3.07547" fill="#343333"/>
<defs>
<filter id="filter0_d" x="147.434" y="105.477" width="89.9102" height="138.223" filterUnits="userSpaceOnUse" color-interpolation-filters="sRGB">
<feFlood flood-opacity="0" result="BackgroundImageFix"/>
<feColorMatrix in="SourceAlpha" type="matrix" values="0 0 0 0 0 0 0 0 0 0 0 0 0 0 0 0 0 0 127 0"/>
<feOffset dx="-4" dy="-4"/>
<feGaussianBlur stdDeviation="5"/>
<feColorMatrix type="matrix" values="0 0 0 0 0 0 0 0 0 0 0 0 0 0 0 0 0 0 0.1 0"/>
<feBlend mode="normal" in2="BackgroundImageFix" result="effect1_dropShadow"/>
<feBlend mode="normal" in="SourceGraphic" in2="effect1_dropShadow" result="shape"/>
</filter>
<filter id="filter1_d" x="165.854" y="212.438" width="89.9102" height="56.3625" filterUnits="userSpaceOnUse" color-interpolation-filters="sRGB">
<feFlood flood-opacity="0" result="BackgroundImageFix"/>
<feColorMatrix in="SourceAlpha" type="matrix" values="0 0 0 0 0 0 0 0 0 0 0 0 0 0 0 0 0 0 127 0"/>
<feOffset dx="-4" dy="-6"/>
<feGaussianBlur stdDeviation="5"/>
<feColorMatrix type="matrix" values="0 0 0 0 0 0 0 0 0 0 0 0 0 0 0 0 0 0 0.15 0"/>
<feBlend mode="normal" in2="BackgroundImageFix" result="effect1_dropShadow"/>
<feBlend mode="normal" in="SourceGraphic" in2="effect1_dropShadow" result="shape"/>
</filter>
</defs>
</svg>
