<svg width="860" height="1114" viewBox="0 0 860 1114" fill="none" xmlns="http://www.w3.org/2000/svg">
<g filter="url(#filter0_f)">
<ellipse cx="417.5" cy="281" rx="221.5" ry="191" fill="#262626"/>
</g>
<g opacity="0.15">
<circle cx="46.5" cy="1061.5" r="2.5" fill="white"/>
<circle cx="46.5" cy="1097.5" r="2.5" fill="white"/>
<circle cx="46.5" cy="1073.5" r="2.5" fill="white"/>
<circle cx="46.5" cy="1109.5" r="2.5" fill="white"/>
<circle cx="46.5" cy="1085.5" r="2.5" fill="white"/>
<circle cx="22.5" cy="1061.5" r="2.5" fill="white"/>
<circle cx="22.5" cy="1097.5" r="2.5" fill="white"/>
<circle cx="22.5" cy="1073.5" r="2.5" fill="white"/>
<circle cx="22.5" cy="1109.5" r="2.5" fill="white"/>
<circle cx="22.5" cy="1085.5" r="2.5" fill="white"/>
<circle cx="58.5" cy="1061.5" r="2.5" fill="white"/>
<circle cx="58.5" cy="1097.5" r="2.5" fill="white"/>
<circle cx="58.5" cy="1073.5" r="2.5" fill="white"/>
<circle cx="58.5" cy="1109.5" r="2.5" fill="white"/>
<circle cx="58.5" cy="1085.5" r="2.5" fill="white"/>
<circle cx="34.5" cy="1061.5" r="2.5" fill="white"/>
<circle cx="34.5" cy="1097.5" r="2.5" fill="white"/>
<circle cx="34.5" cy="1073.5" r="2.5" fill="white"/>
<circle cx="34.5" cy="1109.5" r="2.5" fill="white"/>
<circle cx="34.5" cy="1085.5" r="2.5" fill="white"/>
</g>
<path d="M49.0708 347.142C45.1683 347.142 42 343.973 42 340.071C42 336.168 45.1683 333 49.0708 333C52.9733 333 56.1417 336.168 56.1417 340.071C56.1417 343.973 52.954 347.142 49.0708 347.142ZM49.0708 334.121C45.7865 334.121 43.1205 336.787 43.1205 340.071C43.1205 343.355 45.7865 346.021 49.0708 346.021C52.3551 346.021 55.0212 343.355 55.0212 340.071C55.0212 336.787 52.3358 334.121 49.0708 334.121Z" fill="#F7EBBE"/>
<path d="M114.568 141.472C114.258 141.472 114.007 141.221 114.007 140.912V135.56C114.007 135.251 114.258 135 114.568 135C114.877 135 115.128 135.251 115.128 135.56V140.912C115.128 141.221 114.877 141.472 114.568 141.472Z" fill="#FCF8E9"/>
<path d="M114.568 156.135C114.258 156.135 114.007 155.884 114.007 155.575V150.224C114.007 149.915 114.258 149.663 114.568 149.663C114.877 149.663 115.128 149.915 115.128 150.224V155.575C115.128 155.884 114.877 156.135 114.568 156.135Z" fill="#FCF8E9"/>
<path d="M124.594 146.128H119.243C118.934 146.128 118.683 145.877 118.683 145.568C118.683 145.259 118.934 145.007 119.243 145.007H124.594C124.903 145.007 125.155 145.259 125.155 145.568C125.155 145.877 124.903 146.128 124.594 146.128Z" fill="#FCF8E9"/>
<path d="M109.912 146.128H104.56C104.251 146.128 104 145.877 104 145.568C104 145.259 104.251 145.007 104.56 145.007H109.912C110.221 145.007 110.472 145.259 110.472 145.568C110.472 145.877 110.221 146.128 109.912 146.128Z" fill="#FCF8E9"/>
<mask id="mask0" mask-type="alpha" maskUnits="userSpaceOnUse" x="0" y="90" width="860" height="1024">
<rect y="90" width="860" height="1024" fill="#1D1D1D"/>
</mask>
<g mask="url(#mask0)">
<g filter="url(#filter1_f)">
<circle cx="384.5" cy="745.5" r="396.5" fill="url(#paint0_radial)"/>
</g>
</g>
<g clip-path="url(#clip0)" filter="url(#filter2_d)">
<g opacity="0.1">
<path opacity="0.02" d="M642.585 905.662L752.876 968.153L730.182 986.091L619.866 923.248L642.585 905.662Z" fill="#777777"/>
<path opacity="0.05" d="M642.585 905.662L750.177 966.622L727.496 984.56L619.866 923.248L642.585 905.662Z" fill="#777777"/>
<path opacity="0.07" d="M642.585 905.662L747.485 965.099L724.803 983.029L619.866 923.248L642.585 905.662Z" fill="#777777"/>
<path opacity="0.1" d="M642.585 905.662L744.793 963.568L722.117 981.498L619.866 923.248L642.585 905.662Z" fill="#777777"/>
<path opacity="0.12" d="M642.585 905.662L742.094 962.045L719.431 979.967L619.866 923.248L642.585 905.662Z" fill="#777777"/>
<path opacity="0.15" d="M642.585 905.662L739.402 960.514L716.738 978.436L619.866 923.248L642.585 905.662Z" fill="#777777"/>
<path opacity="0.17" d="M642.585 905.662L736.71 958.99L714.052 976.904L619.866 923.248L642.585 905.662Z" fill="#777777"/>
<path opacity="0.2" d="M642.585 905.662L734.018 957.459L711.366 975.373L619.866 923.248L642.585 905.662Z" fill="#777777"/>
<path opacity="0.22" d="M642.585 905.662L731.319 955.929L708.673 973.842L619.866 923.248L642.585 905.662Z" fill="#777777"/>
</g>
<path d="M13.0792 871.363C13.1255 871.444 13.1927 871.512 13.2739 871.559C13.3551 871.606 13.4474 871.631 13.5412 871.63C13.634 871.631 13.7252 871.606 13.8047 871.558L51.2473 849.953C52.5302 850.324 53.8908 850.331 55.1778 849.975L92.0393 871.251C90.924 872.103 90.8807 873.28 91.9238 874.139L55.2536 895.285C55.1418 895.36 55.0628 895.475 55.0324 895.607C55.002 895.738 55.0224 895.876 55.0896 895.993C55.1567 896.11 55.2657 896.198 55.3945 896.238C55.5234 896.278 55.6625 896.267 55.7841 896.209L92.9777 874.77C94.6093 875.385 96.4117 875.367 98.0307 874.72L136.242 896.779C135.621 897.595 135.794 898.584 136.773 899.306L99.1134 921.07C99.0119 921.129 98.9326 921.219 98.8878 921.328C98.843 921.436 98.8352 921.557 98.8656 921.67C98.896 921.783 98.963 921.884 99.056 921.955C99.1491 922.027 99.2631 922.066 99.3805 922.066C99.4743 922.065 99.5662 922.04 99.6476 921.994L137.906 899.88C139.199 900.313 140.588 900.369 141.912 900.043L177.796 920.759C177.616 920.832 177.441 920.916 177.272 921.012C175.724 921.907 175.612 923.329 176.937 924.3L140.414 945.338C140.313 945.397 140.234 945.488 140.189 945.596C140.144 945.705 140.136 945.825 140.167 945.939C140.197 946.052 140.264 946.152 140.357 946.224C140.45 946.295 140.564 946.334 140.681 946.335C140.775 946.333 140.867 946.308 140.949 946.262L178.07 924.878C179.719 925.459 181.917 925.34 183.339 924.517C183.494 924.427 183.641 924.326 183.78 924.214L220.519 945.418C220.399 945.475 220.284 945.533 220.158 945.598C218.663 946.461 218.512 947.811 219.688 948.778L182.61 970.134C182.544 970.166 182.485 970.211 182.437 970.266C182.389 970.322 182.353 970.387 182.331 970.457C182.31 970.527 182.303 970.601 182.311 970.674C182.319 970.747 182.342 970.818 182.378 970.881C182.415 970.945 182.464 971.001 182.523 971.044C182.582 971.088 182.65 971.119 182.721 971.136C182.793 971.152 182.867 971.154 182.939 971.141C183.011 971.127 183.08 971.099 183.141 971.058L220.76 949.399C222.431 950.063 224.731 949.97 226.228 949.114C226.337 949.049 226.441 948.981 226.539 948.912L264.14 970.618C263.89 970.709 263.648 970.822 263.418 970.957C261.975 971.787 261.783 973.069 262.823 974.025L225.673 995.438C225.57 995.496 225.49 995.587 225.444 995.695C225.399 995.804 225.39 995.925 225.421 996.038C225.452 996.152 225.519 996.253 225.613 996.324C225.707 996.395 225.822 996.433 225.94 996.431C226.033 996.431 226.125 996.408 226.207 996.363L263.837 974.657C265.519 975.401 267.952 975.332 269.485 974.444C269.697 974.324 269.894 974.181 270.074 974.018L307.441 995.594C307.401 995.611 307.363 995.63 307.325 995.651C305.982 996.428 305.723 997.597 306.538 998.539L268.388 1020.52C268.286 1020.58 268.205 1020.67 268.16 1020.78C268.114 1020.89 268.106 1021.01 268.137 1021.12C268.167 1021.24 268.235 1021.34 268.329 1021.41C268.423 1021.48 268.538 1021.52 268.655 1021.52C268.749 1021.52 268.841 1021.49 268.922 1021.45L307.451 999.222C309.13 1000.11 311.761 1000.09 313.385 999.153C313.425 999.131 313.454 999.106 313.49 999.084L350.532 1020.47C350.42 1020.52 350.312 1020.57 350.207 1020.63C348.973 1021.36 348.655 1022.4 349.25 1023.29L310.776 1045.41C310.674 1045.47 310.595 1045.56 310.55 1045.67C310.505 1045.78 310.497 1045.9 310.528 1046.01C310.558 1046.12 310.625 1046.22 310.718 1046.29C310.811 1046.37 310.925 1046.4 311.043 1046.41C311.135 1046.41 311.227 1046.38 311.306 1046.33L350.073 1024.04L350.214 1024.13C351.885 1025.09 354.617 1025.09 356.285 1024.13C356.39 1024.07 356.487 1024.01 356.577 1023.94L392.367 1044.6C391.645 1045.38 391.692 1046.35 392.526 1047.11L352.704 1070.05C352.602 1070.1 352.522 1070.19 352.476 1070.3C352.43 1070.41 352.422 1070.53 352.453 1070.65C352.484 1070.76 352.551 1070.86 352.645 1070.93C352.739 1071 352.854 1071.04 352.972 1071.04C353.065 1071.04 353.157 1071.01 353.239 1070.97L393.551 1047.75C395.026 1048.34 396.656 1048.41 398.178 1047.95L435.498 1069.5C435.578 1069.55 435.671 1069.58 435.765 1069.58C435.882 1069.58 435.997 1069.54 436.091 1069.47C436.185 1069.4 436.253 1069.3 436.283 1069.18C436.314 1069.07 436.306 1068.95 436.26 1068.84C436.215 1068.73 436.134 1068.64 436.032 1068.58L399.365 1047.42C400.708 1046.54 400.776 1045.22 399.567 1044.29L436.638 1022.94C437.692 1023.32 438.822 1023.45 439.933 1023.3L477.445 1044.96C477.526 1045.01 477.618 1045.03 477.712 1045.03C477.829 1045.03 477.944 1044.99 478.038 1044.92C478.132 1044.85 478.2 1044.75 478.23 1044.64C478.261 1044.52 478.253 1044.4 478.207 1044.29C478.162 1044.19 478.081 1044.1 477.979 1044.04L441.435 1022.95C441.654 1022.87 441.866 1022.77 442.07 1022.65C443.535 1021.8 443.712 1020.48 442.601 1019.52L477.813 999.236C479.154 999.658 480.59 999.677 481.942 999.29L520.315 1021.45C520.397 1021.49 520.489 1021.52 520.583 1021.52C520.7 1021.52 520.815 1021.48 520.909 1021.41C521.003 1021.34 521.071 1021.24 521.101 1021.12C521.132 1021.01 521.124 1020.89 521.078 1020.78C521.033 1020.67 520.952 1020.58 520.85 1020.52L483.14 998.741C484.396 997.933 484.584 996.76 483.671 995.854L521.568 974.029C522.863 974.524 524.275 974.626 525.628 974.325L563.461 996.168C563.522 996.202 563.59 996.224 563.66 996.233C563.73 996.241 563.801 996.236 563.868 996.217C563.936 996.198 564 996.166 564.055 996.123C564.111 996.079 564.157 996.025 564.192 995.964C564.226 995.902 564.248 995.835 564.257 995.765C564.265 995.695 564.26 995.624 564.241 995.556C564.222 995.488 564.19 995.425 564.147 995.369C564.103 995.314 564.049 995.267 563.988 995.233L526.942 973.845L527.101 973.762C528.599 972.895 528.747 971.534 527.552 970.571L564.219 949.45C565.766 950.032 567.469 950.051 569.03 949.504L606.389 971.047C606.471 971.094 606.563 971.118 606.656 971.119C606.774 971.119 606.888 971.08 606.981 971.009C607.074 970.937 607.141 970.837 607.171 970.723C607.202 970.61 607.194 970.49 607.149 970.381C607.104 970.273 607.025 970.182 606.924 970.123L570.109 948.905C571.192 948.049 571.235 946.872 570.181 946.017L607.696 924.405C609.147 925.029 610.767 925.141 612.291 924.723L649.625 946.266C649.706 946.312 649.798 946.337 649.892 946.338C650.009 946.338 650.123 946.299 650.216 946.227C650.31 946.156 650.376 946.056 650.407 945.942C650.437 945.829 650.429 945.709 650.385 945.6C650.34 945.491 650.261 945.401 650.159 945.342L613.525 924.206C615.03 923.297 615.102 921.878 613.741 920.922L650.3 899.866C651.809 900.485 653.488 900.559 655.046 900.075L691.98 921.373C692.101 921.431 692.24 921.441 692.369 921.402C692.498 921.362 692.607 921.274 692.674 921.157C692.741 921.04 692.762 920.902 692.731 920.771C692.701 920.639 692.622 920.524 692.51 920.449L656.215 899.512C657.526 898.617 657.562 897.306 656.324 896.389L693.499 874.969C694.522 875.299 695.606 875.395 696.672 875.251L735.035 897.407C735.116 897.453 735.208 897.478 735.302 897.48C735.419 897.479 735.533 897.44 735.626 897.369C735.719 897.297 735.786 897.197 735.817 897.084C735.847 896.97 735.839 896.85 735.794 896.741C735.75 896.633 735.67 896.542 735.569 896.483L698.17 874.89C698.37 874.811 698.564 874.718 698.751 874.612C700.158 873.799 700.375 872.55 699.404 871.597L736.182 850.415C737.618 850.874 739.162 850.866 740.593 850.393L778.927 872.536C779.009 872.582 779.101 872.607 779.194 872.608C779.312 872.608 779.426 872.569 779.519 872.497C779.612 872.426 779.679 872.326 779.709 872.212C779.739 872.099 779.732 871.979 779.687 871.87C779.642 871.762 779.563 871.671 779.461 871.612L741.723 849.816C742.805 849.011 742.928 847.899 742.055 847.033L779.133 825.674C780.628 826.276 782.285 826.345 783.825 825.869L821.679 847.664C821.801 847.723 821.94 847.733 822.069 847.693C822.197 847.653 822.306 847.566 822.373 847.449C822.441 847.332 822.461 847.194 822.431 847.062C822.4 846.931 822.321 846.816 822.209 846.74L784.998 825.313C786.312 824.428 786.362 823.147 785.16 822.212L822.141 800.914C823.516 801.676 825.577 801.806 827.194 801.297L864.42 822.797C864.502 822.842 864.594 822.865 864.687 822.865C864.805 822.867 864.92 822.829 865.013 822.758C865.107 822.687 865.175 822.586 865.206 822.473C865.236 822.359 865.228 822.238 865.183 822.129C865.137 822.021 865.057 821.93 864.954 821.873L828.37 800.748C829.814 799.791 829.753 798.34 828.223 797.416L870.563 773.028C870.629 772.997 870.688 772.951 870.736 772.896C870.784 772.84 870.82 772.775 870.842 772.705C870.863 772.635 870.871 772.561 870.863 772.488C870.854 772.415 870.831 772.345 870.795 772.281C870.758 772.217 870.709 772.162 870.65 772.118C870.591 772.074 870.524 772.043 870.452 772.026C870.38 772.01 870.306 772.008 870.234 772.022C870.162 772.035 870.093 772.063 870.032 772.104L826.985 796.9C825.435 796.474 823.786 796.602 822.321 797.261L786.319 776.451C786.774 775.599 786.424 774.646 785.261 773.96L785.059 773.855L827.984 749.164C828.106 749.094 828.194 748.979 828.231 748.843C828.267 748.708 828.249 748.564 828.179 748.442C828.108 748.322 827.993 748.234 827.858 748.197C827.724 748.16 827.58 748.176 827.457 748.244L783.731 773.397C782.817 773.205 781.875 773.191 780.955 773.353L743.336 751.633C743.935 750.742 743.618 749.691 742.38 748.976C742.202 748.875 742.017 748.786 741.827 748.709L783.875 724.459C783.991 724.385 784.074 724.269 784.107 724.135C784.139 724.001 784.119 723.86 784.05 723.741C783.981 723.622 783.869 723.534 783.737 723.496C783.605 723.457 783.463 723.471 783.341 723.535L740.333 748.323C739.475 748.203 738.603 748.236 737.756 748.42L699.642 726.401C699.848 725.643 699.455 724.838 698.448 724.257L698.343 724.202L740.268 700.017C740.384 699.943 740.467 699.827 740.499 699.693C740.532 699.559 740.512 699.418 740.443 699.299C740.374 699.18 740.262 699.092 740.13 699.054C739.998 699.015 739.856 699.029 739.734 699.093L697.044 723.701C696.287 723.527 695.507 723.476 694.734 723.549L656.28 701.345C656.677 700.555 656.385 699.67 655.403 699.021L696.361 675.427C696.473 675.351 696.552 675.236 696.582 675.105C696.613 674.973 696.592 674.835 696.525 674.718C696.458 674.601 696.349 674.514 696.22 674.474C696.092 674.434 695.952 674.444 695.831 674.503L654.219 698.508C653.166 698.195 652.055 698.127 650.971 698.309L613.467 676.651C613.752 675.929 613.467 675.153 612.644 674.55L654.01 650.725C654.071 650.69 654.124 650.644 654.166 650.589C654.209 650.533 654.24 650.47 654.258 650.403C654.276 650.335 654.281 650.265 654.272 650.196C654.262 650.127 654.24 650.06 654.205 650C654.17 649.939 654.124 649.886 654.068 649.844C654.013 649.801 653.95 649.77 653.883 649.752C653.815 649.734 653.745 649.729 653.676 649.738C653.607 649.747 653.54 649.77 653.48 649.805L611.504 673.99C610.484 673.656 609.402 673.557 608.338 673.701L572.246 652.851C573.873 651.887 573.859 650.324 572.206 649.375C572.055 649.288 571.898 649.211 571.737 649.144L611.471 626.171C611.533 626.134 611.587 626.086 611.63 626.028C611.673 625.97 611.704 625.904 611.722 625.834C611.739 625.764 611.743 625.692 611.733 625.62C611.722 625.549 611.698 625.481 611.661 625.419C611.624 625.357 611.575 625.303 611.517 625.26C611.459 625.217 611.394 625.186 611.324 625.168C611.254 625.15 611.181 625.147 611.11 625.157C611.039 625.168 610.97 625.192 610.908 625.229L570.271 648.718C568.868 648.479 567.424 648.693 566.15 649.328L528.086 627.352C529.075 626.399 528.862 625.139 527.447 624.323L527.375 624.283L567.799 600.968C567.915 600.894 567.998 600.778 568.03 600.644C568.063 600.51 568.043 600.369 567.974 600.25C567.905 600.131 567.793 600.043 567.661 600.005C567.529 599.966 567.387 599.98 567.265 600.044L526.09 623.785C524.806 623.479 523.462 623.534 522.207 623.944L485.439 602.711C486.883 601.773 486.854 600.35 485.399 599.419L524.74 576.71C524.804 576.677 524.861 576.631 524.907 576.575C524.953 576.519 524.987 576.455 525.007 576.385C525.027 576.316 525.033 576.243 525.024 576.172C525.016 576.1 524.993 576.031 524.957 575.969C524.92 575.906 524.872 575.852 524.814 575.808C524.756 575.765 524.691 575.734 524.62 575.717C524.55 575.7 524.478 575.697 524.406 575.709C524.335 575.721 524.267 575.747 524.206 575.786L484.187 598.889C482.593 598.42 480.885 598.54 479.372 599.224L451.158 582.933C451.037 582.875 450.897 582.865 450.769 582.905C450.64 582.944 450.531 583.032 450.464 583.149C450.397 583.266 450.376 583.404 450.407 583.535C450.437 583.667 450.516 583.782 450.628 583.857L478.419 599.91C478.26 600.058 478.133 600.236 478.045 600.434C477.957 600.633 477.91 600.847 477.907 601.064C477.904 601.281 477.945 601.496 478.027 601.696C478.11 601.897 478.232 602.079 478.387 602.231L441.309 623.641C439.637 622.966 437.299 623.052 435.808 623.915C435.711 623.969 435.624 624.027 435.537 624.085L406.93 607.613C406.809 607.555 406.669 607.545 406.541 607.585C406.412 607.625 406.303 607.712 406.236 607.829C406.168 607.946 406.148 608.084 406.178 608.215C406.209 608.347 406.288 608.462 406.4 608.537L434.776 624.868C434.353 625.59 434.538 626.428 435.332 627.077L398.362 648.411C397.499 648.006 396.56 647.785 395.607 647.762C394.654 647.74 393.706 647.917 392.825 648.281L364.034 631.651C363.912 631.582 363.768 631.563 363.633 631.6C363.498 631.636 363.382 631.725 363.312 631.846C363.245 631.968 363.227 632.112 363.264 632.246C363.3 632.381 363.387 632.496 363.507 632.568L391.851 648.935C390.862 649.859 391.024 651.082 392.334 651.909L355.776 673.005C354.098 672.102 351.445 672.12 349.821 673.062C349.642 673.167 349.473 673.288 349.315 673.423L319.838 656.403C319.717 656.345 319.578 656.335 319.449 656.375C319.32 656.415 319.211 656.502 319.144 656.619C319.077 656.736 319.056 656.874 319.087 657.005C319.117 657.137 319.196 657.252 319.308 657.327L348.673 674.293C348.381 675.066 348.727 675.903 349.716 676.517L312.642 697.909C311.77 697.564 310.838 697.401 309.901 697.429C308.965 697.458 308.044 697.677 307.195 698.075L276.791 680.528C276.73 680.492 276.664 680.47 276.594 680.46C276.525 680.451 276.455 680.456 276.387 680.473C276.32 680.491 276.256 680.522 276.201 680.565C276.145 680.607 276.098 680.66 276.063 680.721C276.028 680.781 276.006 680.848 275.996 680.917C275.987 680.986 275.991 681.057 276.009 681.124C276.027 681.192 276.058 681.255 276.101 681.311C276.143 681.366 276.196 681.413 276.257 681.448L306.275 698.775C305.553 699.602 305.676 700.612 306.636 701.374L270.07 722.473C268.396 721.777 266.035 721.86 264.53 722.73L264.454 722.777L233.371 704.843C233.311 704.808 233.244 704.785 233.175 704.776C233.105 704.767 233.035 704.771 232.968 704.789C232.9 704.807 232.837 704.838 232.781 704.88C232.726 704.923 232.679 704.976 232.644 705.036C232.609 705.097 232.586 705.163 232.577 705.233C232.567 705.302 232.572 705.372 232.59 705.44C232.608 705.507 232.639 705.571 232.681 705.626C232.724 705.682 232.777 705.729 232.837 705.764L263.613 723.524C263.047 724.303 263.209 725.22 264.086 725.924L226.615 747.551C225.722 747.149 224.754 746.944 223.776 746.95C222.798 746.955 221.832 747.171 220.944 747.583L189.464 729.433C189.404 729.398 189.337 729.376 189.268 729.367C189.199 729.357 189.129 729.362 189.061 729.38C188.994 729.398 188.931 729.429 188.875 729.472C188.82 729.515 188.774 729.567 188.739 729.628C188.704 729.688 188.681 729.755 188.672 729.824C188.663 729.893 188.668 729.964 188.686 730.031C188.704 730.098 188.735 730.162 188.778 730.217C188.82 730.272 188.873 730.319 188.934 730.353L220.01 748.272C219.216 749.157 219.403 750.261 220.565 751.038L184.004 772.137C182.322 771.292 179.752 771.328 178.153 772.252C178.088 772.288 178.03 772.328 177.972 772.368L145.882 753.842C145.76 753.772 145.615 753.753 145.479 753.79C145.343 753.826 145.227 753.915 145.157 754.037C145.087 754.159 145.068 754.304 145.104 754.44C145.141 754.577 145.23 754.693 145.352 754.763L177.171 773.137C176.641 773.967 176.9 774.942 177.951 775.627L140.234 797.395L140.115 797.319C138.483 796.377 135.845 796.359 134.167 797.257L101.766 778.551C101.706 778.517 101.639 778.494 101.57 778.485C101.501 778.476 101.431 778.481 101.363 778.499C101.296 778.517 101.233 778.548 101.177 778.59C101.122 778.633 101.076 778.686 101.041 778.746C101.006 778.807 100.983 778.873 100.974 778.943C100.965 779.012 100.97 779.082 100.988 779.15C101.006 779.217 101.037 779.28 101.08 779.335C101.122 779.391 101.175 779.437 101.236 779.472L133.25 797.958C132.445 798.885 132.709 800.051 134.044 800.824L134.174 800.889L99.164 821.104C97.4929 820.165 94.7931 820.172 93.1401 821.125C92.9073 821.259 92.6916 821.42 92.4977 821.605L59.2093 802.398C59.0873 802.334 58.9455 802.32 58.8135 802.359C58.6814 802.397 58.5693 802.485 58.5005 802.604C58.4317 802.723 58.4114 802.864 58.444 802.998C58.4765 803.132 58.5593 803.248 58.6752 803.322L91.8949 822.501C91.7072 823.223 92.0934 824.017 93.0535 824.591L56.0945 845.917C55.1884 845.499 54.2014 845.286 53.2035 845.291C52.2056 845.297 51.2211 845.522 50.3197 845.95L16.3673 826.352C16.3068 826.317 16.2401 826.294 16.1708 826.285C16.1016 826.276 16.0312 826.28 15.9636 826.298C15.8961 826.316 15.8328 826.347 15.7772 826.39C15.7217 826.432 15.6751 826.485 15.64 826.545C15.6049 826.606 15.5821 826.673 15.5728 826.742C15.5635 826.811 15.568 826.882 15.5859 826.949C15.6039 827.017 15.6349 827.08 15.6773 827.135C15.7197 827.191 15.7727 827.238 15.8331 827.273L49.3993 846.654C48.6305 847.538 48.8435 848.643 50.0309 849.412L13.2489 870.637C13.1302 870.711 13.0457 870.829 13.0138 870.965C12.982 871.101 13.0055 871.244 13.0792 871.363V871.363ZM137.119 896.043L99.0701 874.081C99.9941 873.24 99.958 872.146 98.9618 871.327L136.047 849.942C137.274 850.36 138.591 850.438 139.859 850.166L178.803 872.637C178.698 873.276 179.015 873.937 179.759 874.442L142.786 895.819C141.107 895.072 138.667 895.137 137.13 896.028L137.119 896.043ZM356.137 1020.56L393.157 999.261C394.666 1000.11 397.001 1000.18 398.658 999.489L434.841 1020.36C434.595 1021.04 434.841 1021.75 435.563 1022.33L398.466 1043.7C396.786 1043.11 394.943 1043.19 393.32 1043.92L357.332 1023.15C357.812 1022.29 357.469 1021.31 356.292 1020.62C356.238 1020.61 356.187 1020.58 356.137 1020.56V1020.56ZM821.235 800.178L784.059 821.602C782.391 821.021 780.563 821.097 778.949 821.815L742.921 801.069C743.394 800.239 743.091 799.293 742.011 798.615L778.999 777.339C779.064 777.382 779.126 777.425 779.194 777.465C780.862 778.429 783.594 778.429 785.261 777.465C785.377 777.396 785.482 777.328 785.583 777.256L821.361 797.918C821.205 798.058 821.077 798.227 820.986 798.417C820.894 798.606 820.841 798.812 820.83 799.022C820.818 799.231 820.848 799.442 820.917 799.64C820.987 799.838 821.095 800.021 821.235 800.178V800.178ZM565.009 651.761L527.527 673.42C525.946 673.012 524.022 673.178 522.73 673.922C522.625 673.983 522.528 674.048 522.434 674.113L484.378 652.201C485.645 651.295 485.641 649.981 484.378 649.079L521.322 627.781L521.395 627.828C522.95 628.723 525.43 628.785 527.108 628.009L565.28 650.028C565.066 650.257 564.926 650.544 564.878 650.853C564.83 651.162 564.875 651.478 565.009 651.761ZM484.252 603.267L521.066 624.525C520.066 625.247 519.868 626.218 520.463 627.052L483.212 648.534C481.614 648.015 479.883 648.089 478.336 648.743L441.586 627.583C441.688 627.536 441.781 627.485 441.875 627.435C443.359 626.576 443.521 625.24 442.37 624.276L479.343 602.939C480.884 603.646 482.63 603.763 484.252 603.267V603.267ZM141.046 798.138L179.12 776.165C180.273 776.511 181.495 776.561 182.672 776.31L219.71 797.694C218.84 798.521 218.884 799.586 219.847 800.387L182.065 822.172C180.451 821.454 178.623 821.378 176.955 821.959L140.209 800.744C141.36 800.026 141.641 799.001 141.046 798.138ZM141.966 846.509L177.193 826.197C178.724 826.662 180.369 826.594 181.856 826.002L220.067 848.062C219.41 848.932 219.656 849.975 220.789 850.711L185.779 870.948C184.097 870.15 181.589 870.204 180.004 871.11C179.738 871.264 179.495 871.455 179.283 871.677L141.165 849.686C141.23 849.65 141.295 849.621 141.356 849.585C142.818 848.773 143.013 847.484 141.966 846.527V846.509ZM435.682 971.325L398.124 949.637C398.697 948.847 398.524 947.916 397.615 947.204L435.368 925.43C436.258 925.851 437.229 926.075 438.214 926.085C439.199 926.095 440.175 925.891 441.074 925.488L478.087 946.887C476.817 947.634 476.542 948.746 477.26 949.652L439.201 971.545C438.063 971.186 436.853 971.116 435.682 971.343V971.325ZM691.868 826.211L655.118 847.347C653.627 846.834 652.007 846.834 650.516 847.347L613.391 825.934C614.546 825.024 614.474 823.768 613.218 822.88L649.802 801.78C651.48 802.603 654.025 802.56 655.609 801.647C655.706 801.589 655.8 801.528 655.887 801.466L692.951 822.872C692.772 822.947 692.599 823.033 692.431 823.129C690.976 823.955 690.789 825.259 691.868 826.219V826.211ZM521.871 676.694L484.721 698.169C483.045 697.582 481.208 697.661 479.588 698.389L441.478 676.369C442.178 675.597 442.121 674.651 441.312 673.904L478.332 652.555C479.89 653.218 481.636 653.292 483.245 652.765L521.698 674.907C521.534 675.186 521.462 675.508 521.491 675.83C521.52 676.152 521.649 676.456 521.86 676.701L521.871 676.694ZM183.033 822.847L220.93 800.997C222.438 801.563 224.094 801.595 225.622 801.087L264.032 823.262C263.646 823.984 263.837 824.782 264.606 825.428L226.849 847.231C225.171 846.361 222.569 846.39 220.955 847.322L220.923 847.343L182.877 825.378C183.722 824.616 183.769 823.641 183.022 822.854L183.033 822.847ZM398.466 899.664C398.871 898.916 398.651 898.082 397.813 897.433L434.444 876.319C436.122 877.041 438.519 876.965 440.042 876.088C440.308 875.94 440.551 875.754 440.764 875.536L478.206 897.126C478.098 897.176 477.99 897.231 477.888 897.288C476.553 898.061 476.29 899.227 477.094 900.176L440.237 921.434C438.922 921.066 437.53 921.08 436.223 921.474L398.466 899.664ZM606.22 825.663L568.828 847.231C567.773 846.99 566.677 846.982 565.619 847.21L527.494 825.19C527.686 824.497 527.372 823.768 526.552 823.201L563.681 801.798C565.327 802.419 567.561 802.318 569.015 801.502L606.357 823.064C605.465 823.869 605.419 824.879 606.216 825.684L606.22 825.663ZM440.439 727.26L476.669 748.197C475.225 749.161 475.272 750.622 476.827 751.547L439.731 772.917C438.588 772.455 437.342 772.306 436.122 772.487L400.029 751.655C401.635 750.724 401.686 749.229 400.195 748.258L437.244 726.841C438.256 727.238 439.347 727.389 440.428 727.282L440.439 727.26ZM314.194 797.976L351.629 776.317C352.983 776.941 354.503 777.107 355.96 776.79L391.908 797.532C391.795 797.582 391.684 797.639 391.576 797.701C390.079 798.568 389.93 799.929 391.129 800.896L353.621 822.504C352.484 821.996 351.229 821.812 349.994 821.974L313.825 801.134C315.262 800.264 315.385 798.929 314.194 797.976ZM436.526 871.883L397.907 849.61C398.196 848.96 398.019 848.253 397.384 847.672L434.945 826.035C436.624 826.757 439.027 826.684 440.547 825.804L440.709 825.703L478.282 847.379C478.091 847.457 477.906 847.546 477.726 847.646C476.358 848.437 476.113 849.639 477.004 850.578L439.37 872.269C438.46 871.943 437.491 871.811 436.526 871.883ZM519.539 826.038L482.779 847.231C481.79 846.936 480.748 846.859 479.726 847.004L441.496 824.944C442.005 824.168 441.817 823.27 440.93 822.584L477.531 801.502C479.202 802.185 481.548 802.098 483.043 801.235C483.168 801.168 483.288 801.092 483.403 801.008L521.037 822.714C520.764 822.809 520.501 822.93 520.251 823.075C518.843 823.872 518.616 825.1 519.539 826.042V826.038ZM477.376 797.521C477.242 797.582 477.109 797.647 476.986 797.719C475.506 798.571 475.34 799.907 476.481 800.871L439.829 821.963C438.585 821.527 437.244 821.446 435.956 821.728L398.683 800.232C399.076 799.51 398.903 798.723 398.163 798.088L434.805 776.978C436.465 777.591 438.71 777.479 440.157 776.645C440.322 776.549 440.479 776.441 440.626 776.321L477.376 797.521ZM392.677 846.614L355.058 824.923C355.154 824.622 355.161 824.3 355.078 823.996C354.994 823.691 354.824 823.418 354.589 823.208L392.208 801.549C393.875 802.203 396.178 802.102 397.647 801.253C397.752 801.192 397.853 801.127 397.947 801.062L434.646 822.237L434.469 822.331C433.025 823.168 432.83 824.468 433.902 825.428L396.366 847.058C395.201 846.572 393.926 846.414 392.677 846.6V846.614ZM357.667 772.855L394.121 751.774C395.569 752.436 397.201 752.577 398.741 752.175L434.631 772.888C434.438 772.964 434.25 773.053 434.068 773.155C432.545 774.036 432.419 775.429 433.682 776.404L397.091 797.481C395.875 797.009 394.552 796.884 393.269 797.12L357.274 776.353C357.342 776.317 357.418 776.281 357.483 776.241C359.118 775.31 359.172 773.812 357.678 772.841L357.667 772.855ZM519.391 772.898C518.132 773.83 518.19 775.173 519.568 776.064L482.44 797.449C481.266 797.016 479.998 796.903 478.766 797.12L441.283 775.487C441.547 774.844 441.366 774.151 440.735 773.577L478.051 752.077C479.594 752.498 481.236 752.37 482.696 751.716L519.391 772.898ZM562.941 798.044C561.465 798.921 561.342 800.286 562.58 801.243L525.387 822.685C524.478 822.401 523.522 822.302 522.575 822.396L484.125 800.207C484.486 799.485 484.291 798.694 483.523 798.062L520.77 776.609C522.303 777.061 523.944 776.977 525.423 776.371L562.941 798.044ZM563.204 850.495L526.231 871.821C525.108 871.572 523.941 871.593 522.828 871.883L484.901 849.996C485.215 849.235 484.901 848.405 483.963 847.784L520.492 826.731C522.174 827.547 524.708 827.5 526.289 826.587C526.513 826.461 526.72 826.309 526.906 826.132L564.291 847.708L564.128 847.791C562.88 848.506 562.573 849.581 563.215 850.48L563.204 850.495ZM520.676 875.027L482.844 896.848C481.778 896.552 480.658 896.504 479.57 896.707L441.272 874.608C441.384 874.002 441.11 873.377 440.453 872.868L477.939 851.26C479.621 852.112 482.198 852.079 483.8 851.152C483.964 851.058 484.12 850.95 484.266 850.83L521.608 872.377C520.377 873.092 520.07 874.135 520.676 875.027ZM393.085 896.57L355.036 874.604C355.624 873.846 355.527 872.951 354.733 872.24L391.464 851.083C393.121 851.693 395.359 851.581 396.803 850.747C396.955 850.659 397.099 850.559 397.236 850.448L434.927 872.179C434.598 872.283 434.28 872.421 433.978 872.59C432.534 873.431 432.339 874.734 433.415 875.691L396.72 896.844C395.551 896.436 394.296 896.339 393.078 896.563L393.085 896.57ZM349.366 871.33L312.241 849.892C312.465 849.565 312.559 849.166 312.506 848.773C312.453 848.38 312.255 848.021 311.952 847.766L348.745 826.572C350.38 827.107 352.51 826.977 353.899 826.172C354.093 826.062 354.275 825.934 354.444 825.789L391.233 847C391.059 847.075 390.887 847.158 390.721 847.249C389.191 848.134 389.068 849.531 390.342 850.498L353.704 871.605C352.322 871.052 350.8 870.954 349.359 871.323L349.366 871.33ZM306.697 846.693L270.77 825.934C270.894 825.879 271.015 825.818 271.131 825.749C272.618 824.89 272.777 823.544 271.611 822.58L308.213 801.423C309.612 801.96 311.145 802.037 312.591 801.643L348.485 822.338C348.257 822.425 348.036 822.53 347.825 822.652C346.244 823.562 346.161 825.024 347.572 825.995L310.978 847.091C309.628 846.503 308.126 846.362 306.69 846.686L306.697 846.693ZM226.882 797.561L263.534 776.425C265.198 777.051 267.037 777.017 268.677 776.331L306.863 798.351C306.21 799.134 306.307 800.077 307.163 800.809L270.554 821.963C268.886 821.291 266.558 821.385 265.071 822.244C264.961 822.306 264.855 822.375 264.754 822.45L226.741 800.503C227.91 799.662 227.964 798.449 226.882 797.561ZM269.511 772.982L307.008 751.359C308.635 752.062 310.469 752.119 312.136 751.518L350.46 773.631C350.256 773.941 350.167 774.313 350.209 774.682C350.252 775.051 350.422 775.393 350.691 775.649L313.114 797.369C311.476 796.738 309.234 796.828 307.762 797.636L269.673 775.674C270.529 774.844 270.478 773.783 269.511 772.982V772.982ZM313.049 747.872L349.597 726.809C351.293 727.522 353.203 727.532 354.906 726.838L393.11 748.883C392.845 749.192 392.709 749.592 392.731 749.999C392.752 750.407 392.929 750.79 393.226 751.07L356.505 772.299C354.885 771.805 352.82 771.938 351.452 772.732L351.257 772.855L313.215 750.911C314.356 750.005 314.302 748.745 313.049 747.872V747.872ZM355.614 723.325L392.757 701.905C394.05 702.341 395.442 702.398 396.766 702.067L435.526 724.448C435.451 724.776 435.474 725.118 435.593 725.433C435.712 725.748 435.921 726.02 436.194 726.217L399.019 747.717C397.398 747.222 395.334 747.356 393.966 748.15L355.91 726.188C356.852 725.311 356.758 724.137 355.614 723.329V723.325ZM398.683 698.508L435.4 677.336C437.084 677.915 438.926 677.824 440.543 677.08L478.643 699.1C477.921 699.887 477.953 700.862 478.802 701.627L442.157 722.809C440.493 722.163 438.186 722.264 436.743 723.112C436.518 723.241 436.31 723.396 436.122 723.574L398.062 701.601H398.087C399.495 700.735 399.694 699.457 398.683 698.508ZM520.315 723.145C520.042 723.241 519.777 723.362 519.525 723.506C517.865 724.462 517.858 726.033 519.496 726.993L482.916 748.063C481.545 747.291 479.48 747.157 477.863 747.662L441.994 726.953C442.272 726.857 442.54 726.736 442.796 726.592C444.301 725.722 444.445 724.354 443.232 723.387L479.819 702.237C481.296 702.824 482.928 702.894 484.45 702.435L520.315 723.145ZM563.006 747.803C562.802 747.882 562.604 747.977 562.414 748.085C560.801 749.016 560.754 750.521 562.262 751.489L525.664 772.57C524.058 771.831 522.23 771.738 520.557 772.31L483.685 751.012C483.993 750.728 484.177 750.335 484.199 749.917C484.22 749.499 484.077 749.088 483.8 748.774L520.749 727.476C522.337 727.899 524.289 727.74 525.592 726.986C525.816 726.858 526.025 726.704 526.213 726.527L563.006 747.803ZM606.649 773.007C606.306 773.112 605.974 773.254 605.66 773.429C604.141 774.306 604.011 775.692 605.256 776.678L568.589 797.777C567.19 797.225 565.651 797.137 564.197 797.524L526.43 775.714C527.224 774.971 527.278 774.028 526.574 773.256L563.428 752.03C565.049 752.518 567.102 752.37 568.456 751.586C568.628 751.488 568.791 751.374 568.943 751.247L606.649 773.007ZM649.878 797.976C649.773 798.026 649.668 798.08 649.567 798.138C648.181 798.936 647.95 800.16 648.867 801.102L612.056 822.324C610.532 821.848 608.892 821.903 607.404 822.479L569.903 800.82C570.528 800.051 570.437 799.134 569.625 798.412L606.324 777.259C607.985 777.884 610.248 777.775 611.702 776.934C611.969 776.781 612.212 776.59 612.424 776.367L649.878 797.976ZM649.224 850.773L611.854 872.265C610.867 872.019 609.839 871.98 608.836 872.153L571.195 850.433C571.791 849.545 571.47 848.495 570.235 847.784L570.145 847.737L607.202 826.363C608.828 827.074 610.664 827.135 612.334 826.533L649.412 847.953C648.333 848.773 648.257 849.903 649.195 850.765L649.224 850.773ZM606.18 875.528L569.192 896.805C568.156 896.575 567.082 896.575 566.045 896.805L528.566 875.178C529.288 874.261 529.025 873.132 527.718 872.377C527.675 872.348 527.624 872.327 527.577 872.301L564.082 851.249L564.168 851.303C565.836 852.267 568.568 852.267 570.235 851.303L570.383 851.209L607.436 872.59C607.306 872.651 607.18 872.713 607.075 872.785C605.743 873.507 605.451 874.612 606.151 875.521L606.18 875.528ZM563.591 900.025L525.693 921.82C524.753 921.565 523.771 921.503 522.806 921.636L484.977 899.826C485.443 898.996 485.136 898.054 484.053 897.379L521.496 875.781L521.626 875.868C523.282 876.824 525.986 876.828 527.66 875.868L564.695 897.238L564.515 897.328C563.266 898.061 562.952 899.122 563.569 900.017L563.591 900.025ZM519.955 925.113L482.992 946.374C481.808 946.07 480.567 946.07 479.383 946.374L442.03 924.842C442.9 923.929 442.698 922.763 441.428 921.954L477.99 900.866C479.668 901.761 482.321 901.743 483.938 900.801C484.037 900.744 484.133 900.683 484.226 900.617L521.33 922.008C521.134 922.087 520.943 922.179 520.759 922.282C519.438 923.037 519.168 924.192 519.955 925.113ZM392.547 946.41L354.509 924.452C354.599 924.142 354.597 923.813 354.503 923.505C354.409 923.196 354.226 922.922 353.979 922.716L391.833 900.898C393.511 901.62 395.918 901.551 397.441 900.671C397.549 900.61 397.653 900.542 397.752 900.469L435.064 922.012C433.917 922.781 433.725 923.867 434.487 924.744L396.517 946.623C395.229 946.173 393.839 946.101 392.511 946.414L392.547 946.41ZM349.496 921.557L311.129 899.404C311.3 899.104 311.367 898.756 311.32 898.414C311.273 898.072 311.115 897.755 310.869 897.512L348.825 875.651C350.485 876.272 352.741 876.164 354.195 875.326L391.732 896.985C391.608 897.038 391.487 897.099 391.371 897.166C389.927 897.999 389.736 899.299 390.8 900.259L352.954 922.062C351.853 921.592 350.648 921.419 349.46 921.561L349.496 921.557ZM305.733 896.288L268.309 874.68C268.428 874.414 268.469 874.119 268.427 873.83C268.386 873.542 268.263 873.271 268.074 873.049L306.12 851.134C307.762 851.679 309.906 851.552 311.303 850.744C311.36 850.711 311.407 850.679 311.458 850.646L348.132 871.818C346.612 872.695 346.482 874.081 347.731 875.048L309.895 896.819C308.588 896.199 307.117 896.015 305.697 896.292L305.733 896.288ZM263.05 871.67L226.99 850.841H227.026C228.38 850.058 228.636 848.87 227.788 847.953L265.645 826.067C266.836 826.514 268.126 826.628 269.377 826.399L305.369 847.184C305.315 847.213 305.253 847.239 305.199 847.271C303.626 848.181 303.539 849.632 304.929 850.603L267.176 872.348C265.91 871.682 264.463 871.444 263.05 871.67ZM184.938 772.808L221.728 751.572C223.052 751.972 224.463 751.981 225.792 751.597L262.642 772.87C261.462 773.725 261.404 774.938 262.473 775.826L225.817 796.947C224.163 796.329 222.336 796.362 220.706 797.041L184.007 775.851L184.206 775.747C185.577 774.952 185.819 773.747 184.938 772.808ZM227.553 748.218L265.14 726.523C266.442 726.993 267.854 727.072 269.2 726.751L306.17 748.081C305.268 748.864 305.221 749.886 306.022 750.687L268.432 772.346C266.932 771.791 265.288 771.76 263.768 772.26L226.976 751.045C228.221 750.272 228.408 749.121 227.553 748.218V748.218ZM271.106 723.087L307.729 701.962C309.117 702.449 310.62 702.496 312.035 702.096L348.886 723.365C347.803 724.174 347.713 725.285 348.604 726.148L311.891 747.312C310.365 746.828 308.72 746.879 307.228 747.457L270.503 726.264L270.586 726.22C272.055 725.372 272.229 724.047 271.106 723.087V723.087ZM313.656 698.54L350.911 677.044C351.837 677.3 352.805 677.369 353.758 677.246L391.104 698.804C390.479 699.623 390.656 700.609 391.631 701.331L354.455 722.762C352.997 722.287 351.425 722.295 349.972 722.787L313.208 701.569C314.565 700.721 314.71 699.464 313.656 698.533V698.54ZM356.664 673.723L393.518 652.458C394.898 652.848 396.363 652.812 397.723 652.357L434.48 673.586C433.094 674.474 433.036 675.813 434.27 676.748L397.658 697.862C395.98 697.107 393.533 697.176 391.995 698.064H391.973L355.249 676.86C355.461 676.779 355.666 676.682 355.863 676.568C357.198 675.806 357.462 674.644 356.664 673.716V673.723ZM399.289 649.126L436.404 627.709C437.623 628.161 438.943 628.267 440.219 628.016L477.365 649.393C477.178 649.546 477.028 649.739 476.925 649.958C476.822 650.176 476.768 650.415 476.768 650.657C476.768 650.898 476.822 651.137 476.925 651.355C477.028 651.574 477.178 651.767 477.365 651.92L440.309 673.286C438.842 672.69 437.216 672.608 435.696 673.052L398.882 651.783C399.881 651.003 400.029 649.963 399.289 649.119V649.126ZM527.094 678.04L563.129 698.789C563.038 698.833 562.952 698.876 562.869 698.923C561.331 699.811 561.212 701.222 562.508 702.172L525.534 723.47C524.395 722.889 523.11 722.654 521.839 722.795L485.62 701.858C486.955 700.973 487.016 699.667 485.811 698.743L522.723 677.401C524.067 678.099 525.607 678.322 527.094 678.033V678.04ZM605.913 723.415L605.758 723.495C604.264 724.358 604.112 725.711 605.296 726.675L568.294 747.973C567.099 747.409 565.764 747.211 564.457 747.403L526.758 725.628C526.824 725.378 526.827 725.116 526.768 724.864C526.709 724.612 526.589 724.379 526.419 724.184L563.627 702.767C565.283 703.363 567.499 703.248 568.932 702.406C569.019 702.356 569.098 702.305 569.174 702.251L605.913 723.415ZM649.585 748.565C649.384 748.643 649.188 748.736 649 748.843C647.611 749.644 647.384 750.872 648.307 751.814L611.226 773.187C610.282 772.805 609.264 772.641 608.248 772.707L569.589 750.381C569.701 750.093 569.727 749.779 569.663 749.477C569.599 749.175 569.448 748.898 569.228 748.68L606.371 727.289C608.039 727.949 610.342 727.852 611.832 727L611.977 726.906L649.585 748.565ZM692.943 773.53L692.907 773.548C691.666 774.27 691.348 775.324 691.962 776.219L654.674 797.723C653.557 797.379 652.372 797.314 651.224 797.532L612.929 775.415C612.965 775.114 612.923 774.809 612.806 774.53C612.689 774.251 612.501 774.007 612.262 773.823L649.275 752.489C650.957 753.305 653.49 753.258 655.071 752.344C655.243 752.246 655.406 752.132 655.558 752.005L692.943 773.53ZM736.099 798.38C735.996 798.425 735.896 798.477 735.8 798.535C734.461 799.308 734.197 800.47 735.006 801.401L697.812 822.793C696.719 822.407 695.548 822.295 694.401 822.468L656.641 800.665C657.096 799.864 656.833 798.958 655.847 798.286L692.788 776.988L692.911 777.068C694.582 778.032 697.311 778.032 698.982 777.068L699.021 777.043L736.099 798.38ZM778.108 825.017L741.073 846.347C740.224 845.984 739.31 845.795 738.387 845.79C737.464 845.785 736.548 845.964 735.695 846.318L699.602 825.479C699.913 824.757 699.678 824.002 698.881 823.392L735.897 802.094C737.572 802.993 740.228 802.972 741.842 802.033C741.943 801.975 742.033 801.914 742.12 801.853L777.945 822.483C777.227 823.28 777.27 824.255 778.111 825.02L778.108 825.017ZM735.027 849.83L698.415 870.919C696.733 870.132 694.239 870.197 692.676 871.092C692.507 871.189 692.347 871.3 692.196 871.424L656.436 850.776C657.392 849.91 657.323 848.769 656.23 847.942L692.9 826.85C694.575 827.572 696.975 827.497 698.494 826.616C698.648 826.527 698.794 826.427 698.931 826.316L734.695 846.971C733.764 847.859 733.872 849.015 735.031 849.834L735.027 849.83ZM692.373 874.399L655.198 895.805C653.552 895.246 651.758 895.324 650.166 896.021L614.157 875.24C614.6 874.391 614.247 873.435 613.074 872.763L650.191 851.411C651.862 852.086 653.729 852.086 655.4 851.411L691.529 872.272C691.254 873.005 691.529 873.796 692.377 874.402L692.373 874.399ZM649.304 899.212L612.597 920.355C610.984 919.813 608.876 919.929 607.472 920.716L571.567 899.974C572.148 899.09 571.827 898.05 570.6 897.339L570.481 897.277L607.032 876.258C608.703 877.221 611.432 877.221 613.103 876.258C613.218 876.192 613.328 876.12 613.435 876.041L649.221 896.693C648.463 897.48 648.492 898.447 649.304 899.212ZM606.714 923.734L569.106 945.392C567.488 944.793 565.705 944.811 564.1 945.443L527.942 924.596C528.259 923.809 527.909 922.95 526.888 922.326L564.377 900.761C564.417 900.786 564.453 900.815 564.493 900.837C566.164 901.801 568.893 901.801 570.564 900.837C570.622 900.804 570.672 900.768 570.726 900.732L606.559 921.409C606.412 921.57 606.3 921.76 606.229 921.966C606.158 922.172 606.13 922.391 606.146 922.608C606.162 922.826 606.223 923.038 606.323 923.231C606.424 923.425 606.563 923.596 606.732 923.734H606.714ZM563.132 948.836L526.469 969.964C524.802 969.311 522.499 969.408 521.023 970.26L520.882 970.35L485.049 949.663C485.771 948.753 485.511 947.63 484.23 946.876L520.832 925.824C522.506 926.744 525.163 926.733 526.827 925.784C526.994 925.686 527.154 925.575 527.303 925.452L563.085 946.082C562.147 946.919 562.183 948.013 563.15 948.836H563.132ZM520.485 973.383L482.678 995.161C481.791 994.775 480.832 994.581 479.865 994.592C478.898 994.604 477.944 994.819 477.066 995.226L441.099 974.462C441.561 973.668 441.316 972.765 440.352 972.09L478.13 950.359C479.791 951.309 482.483 951.309 484.147 950.359L520.048 971.087C519.565 971.863 519.709 972.722 520.503 973.401L520.485 973.383ZM476.632 998.651L441.529 1018.87C439.854 1018.17 437.486 1018.25 435.978 1019.12C435.793 1019.22 435.618 1019.34 435.454 1019.48L399.686 998.835C400.787 997.89 400.625 996.59 399.214 995.742L434.303 975.559C435.981 976.368 438.504 976.317 440.078 975.408C440.172 975.354 440.255 975.299 440.338 975.242L476.131 995.908C475.369 996.803 475.535 997.886 476.643 998.662L476.632 998.651ZM356.621 974.007C357.844 973.094 357.812 971.794 356.523 970.903L391.598 950.688C393.273 951.41 395.669 951.33 397.189 950.453L397.265 950.403L434.296 971.787C434.198 971.834 434.101 971.881 434.011 971.935C432.614 972.74 432.39 973.975 433.328 974.92L397.958 995.258C396.56 994.885 395.082 994.947 393.72 995.435L356.621 974.007ZM313.143 948.926C313.865 948.125 313.757 947.143 312.862 946.399L348.041 926.12C349.691 926.69 351.867 926.567 353.286 925.759C353.489 925.643 353.679 925.505 353.852 925.347L391.208 946.916L391.122 946.959C389.678 947.8 389.483 949.125 390.562 950.067L355.372 970.354C353.812 969.86 352.129 969.928 350.615 970.545L313.143 948.926ZM269.644 923.827C270.572 923.03 270.604 921.986 269.753 921.167L305.037 900.844C306.65 901.324 308.689 901.176 310.039 900.396C310.144 900.335 310.241 900.274 310.335 900.209L347.922 921.911C347.673 922 347.432 922.11 347.2 922.239C345.645 923.138 345.54 924.571 346.886 925.539L311.786 945.753C310.364 945.222 308.81 945.16 307.35 945.576L269.644 923.827ZM226.882 899.144C227.658 898.4 227.697 897.465 226.994 896.7L262.364 876.319C263.945 876.727 265.869 876.561 267.158 875.814C267.308 875.728 267.452 875.63 267.587 875.521L304.308 896.722C304.196 896.776 304.084 896.83 303.979 896.891C302.359 897.826 302.319 899.339 303.842 900.31L268.767 920.525C267.156 919.857 265.354 919.816 263.714 920.409L226.882 899.144ZM185.13 875.052C185.47 874.949 185.798 874.808 186.108 874.633C187.508 873.825 187.728 872.583 186.775 871.633L222.002 851.271C223.214 851.618 224.495 851.643 225.719 851.343L261.606 872.063C261.432 872.135 261.262 872.218 261.098 872.312C259.426 873.276 259.426 874.839 261.098 875.814L226.044 896.007C224.454 895.284 222.649 895.189 220.991 895.74L185.13 875.052ZM93.1509 870.662L56.3977 849.448C57.6573 848.664 57.8775 847.516 57.051 846.607L94.3203 825.103C95.1228 825.314 95.9556 825.383 96.7818 825.309L134.336 846.968C133.831 847.751 134.033 848.654 134.939 849.339L97.8935 870.702C96.3638 870.14 94.6863 870.126 93.1473 870.662H93.1509ZM135.466 801.354C136.632 801.615 137.844 801.585 138.996 801.268L175.854 822.566C174.645 823.486 174.699 824.793 176.02 825.677L140.952 845.892C139.274 845.17 136.845 845.221 135.314 846.105C135.249 846.141 135.195 846.181 135.138 846.217L98.3555 824.995C98.6417 824.901 98.9185 824.78 99.182 824.634C100.492 823.88 100.77 822.746 100.023 821.829L135.466 801.354ZM606.837 674.052C606.632 674.132 606.434 674.226 606.241 674.333C604.827 675.153 604.617 676.409 605.599 677.358L568.535 698.71C567.251 698.191 565.842 698.065 564.486 698.349L528.48 677.618C528.592 677.564 528.696 677.51 528.801 677.448C530.468 676.485 530.468 674.922 528.801 673.943L565.717 652.606C565.843 652.704 565.975 652.793 566.114 652.873C567.424 653.631 569.387 653.79 570.979 653.36L606.837 674.052ZM649.527 698.714C649.387 698.779 649.249 698.844 649.116 698.919C647.748 699.71 647.506 700.916 648.394 701.854L611.269 723.235C609.977 722.743 608.568 722.642 607.22 722.946L569.943 701.482C570.358 700.786 570.224 700.002 569.535 699.363L606.577 678.022C608.259 678.802 610.742 678.744 612.298 677.842C612.473 677.736 612.638 677.615 612.792 677.481L649.527 698.714ZM693.16 723.906C692.884 724.003 692.617 724.124 692.362 724.267C691.11 724.989 690.799 726.072 691.427 726.957L654.147 748.446C653.146 748.135 652.089 748.048 651.05 748.189L612.792 726.148C613.294 725.397 613.153 724.534 612.337 723.852L649.351 702.554C651.033 703.403 653.606 703.367 655.205 702.443C655.33 702.37 655.45 702.29 655.566 702.204L693.16 723.906ZM736.428 748.893L736.269 748.973C735.186 749.605 734.825 750.496 735.143 751.308L697.531 773.007C696.436 772.761 695.3 772.772 694.21 773.039L656.201 751.153C656.493 750.431 656.201 749.615 655.313 749.005L692.268 727.708L692.366 727.772C694.037 728.736 696.766 728.736 698.437 727.772C698.661 727.643 698.869 727.488 699.057 727.31L736.428 748.893ZM779.519 773.776C779.396 773.833 779.276 773.895 779.158 773.96C777.942 774.66 777.617 775.689 778.173 776.566L740.763 798.084C739.686 797.784 738.555 797.736 737.457 797.943L699.859 776.284C700.537 775.378 700.241 774.281 698.964 773.545L698.83 773.476L735.803 752.149C735.949 752.268 736.103 752.376 736.266 752.471C737.937 753.434 740.665 753.434 742.336 752.471L742.477 752.38L779.519 773.776ZM351.907 1020.04L314.331 998.337C314.937 997.471 314.663 996.449 313.519 995.727L350.496 974.401C352.087 975.092 353.878 975.164 355.52 974.603L392.67 996.038C391.746 996.76 391.612 997.742 392.269 998.565L354.827 1020.1C353.872 1019.89 352.884 1019.86 351.921 1020.04H351.907ZM308.722 995.106L270.655 973.134C270.861 972.462 270.59 971.751 269.839 971.188L306.892 949.832C307.749 950.153 308.661 950.299 309.575 950.263C310.489 950.228 311.387 950.01 312.216 949.623L349.597 971.192C348.767 971.964 348.742 972.942 349.514 973.718L312.295 995.182C311.133 994.864 309.911 994.838 308.736 995.106H308.722ZM265.674 970.26L227.279 948.092C227.665 947.371 227.484 946.584 226.73 945.948L263.859 924.564C265.403 925.075 267.076 925.035 268.594 924.452L306.159 946.111C304.799 946.973 304.687 948.277 305.82 949.201L268.749 970.599C267.766 970.263 266.721 970.147 265.689 970.26H265.674ZM221.897 944.992L184.451 923.376C184.587 923.051 184.612 922.69 184.524 922.349C184.436 922.007 184.24 921.704 183.964 921.485L221.165 900.053C222.711 900.513 224.368 900.425 225.857 899.804L262.613 921.001C261.502 921.893 261.531 923.12 262.729 923.986L225.68 945.327C224.478 944.873 223.175 944.755 221.912 944.988L221.897 944.992ZM143.186 899.544H143.212C144.655 898.718 144.847 897.436 143.814 896.48L180.914 875.027C181.747 875.294 182.622 875.405 183.495 875.352L219.854 896.324C218.57 897.256 218.616 898.606 219.992 899.508L182.982 920.828C181.807 920.336 180.52 920.179 179.261 920.373L143.186 899.544Z" fill="#4A4A4A"/>
<g filter="url(#filter3_f)">
<path d="M158.833 755.083C143.625 879.071 224.741 932.219 340.07 873.806C455.383 815.27 561.113 667.434 576.321 543.443C591.537 419.39 510.457 366.242 395.137 424.841C279.808 483.251 174.025 631.213 158.833 755.083Z" fill="url(#paint1_radial)"/>
</g>
<g filter="url(#filter4_d)">
<path d="M569.389 500.386C569.587 500.338 569.782 500.298 569.98 500.256C570.435 500.157 570.884 500.074 571.328 500.008C571.537 499.977 571.746 499.948 571.952 499.926C572.533 499.86 573.106 499.812 573.662 499.805C574.3 499.798 574.918 499.836 575.52 499.904C576.224 499.983 576.898 500.116 577.549 500.294C577.126 500.185 577.249 500.204 577.41 500.256C577.887 500.408 576.126 500.065 577.268 500.065C577.268 500.065 578.409 498.923 576.126 497.782L563.135 490.513C562.794 490.297 562.44 490.099 562.075 489.919C562.005 489.883 561.923 489.868 561.853 489.833C561.411 489.626 560.945 489.458 560.47 489.304C560.308 489.251 560.156 489.183 559.991 489.137C559.343 488.956 558.666 488.826 557.964 488.747C557.938 488.745 557.916 488.736 557.89 488.734C557.311 488.672 556.716 488.641 556.107 488.65C555.689 488.655 555.263 488.674 554.83 488.712C554.687 488.725 554.539 488.754 554.396 488.769C554.19 488.791 553.981 488.82 553.77 488.853C553.326 488.917 552.877 489 552.422 489.102C552.227 489.143 552.031 489.181 551.833 489.232C551.745 489.254 551.66 489.265 551.572 489.289C551.198 489.386 550.813 489.52 550.431 489.641C550.202 489.714 549.978 489.773 549.745 489.852C549.046 490.099 548.338 490.377 547.619 490.7L290.834 606.333C290.825 606.337 290.814 606.341 290.806 606.346C290.773 606.361 290.742 606.381 290.709 606.397C289.907 606.764 289.117 607.176 288.339 607.616C288.08 607.764 287.829 607.925 287.572 608.079C287.011 608.418 286.46 608.77 285.914 609.144C285.776 609.239 285.633 609.318 285.497 609.415C285.299 609.554 285.11 609.71 284.914 609.856C284.677 610.032 284.439 610.208 284.206 610.391C283.797 610.71 283.395 611.04 282.999 611.377C282.795 611.551 282.588 611.718 282.386 611.895C281.892 612.333 281.408 612.784 280.935 613.249C280.843 613.339 280.746 613.423 280.656 613.513C280.096 614.072 279.55 614.651 279.021 615.244C278.867 615.415 278.722 615.596 278.57 615.77C278.201 616.199 277.836 616.631 277.482 617.074C277.299 617.303 277.126 617.534 276.95 617.765C276.64 618.172 276.336 618.582 276.042 618.998C275.866 619.245 275.697 619.493 275.527 619.742C275.242 620.165 274.967 620.594 274.699 621.026C274.549 621.268 274.395 621.508 274.25 621.753C273.958 622.246 273.681 622.746 273.41 623.248C273.312 623.433 273.204 623.615 273.107 623.802C272.751 624.492 272.417 625.185 272.107 625.888C272.043 626.031 271.99 626.176 271.929 626.321C271.691 626.878 271.465 627.438 271.258 628.001C271.168 628.248 271.089 628.495 271.005 628.739C270.847 629.206 270.696 629.671 270.561 630.14C270.484 630.408 270.412 630.677 270.342 630.945C270.223 631.399 270.117 631.853 270.023 632.306C269.968 632.57 269.911 632.835 269.865 633.099C269.777 633.581 269.711 634.061 269.651 634.539C269.623 634.766 269.588 634.992 269.566 635.217C269.5 635.915 269.456 636.611 269.451 637.298L267.93 903.888C267.906 908.109 269.1 911.489 271.177 913.856C271.869 914.644 272.659 915.32 273.536 915.877L286.153 923.609C282.649 921.383 285.457 920.67 285.49 915.045L287.011 648.455C287.014 647.768 287.058 647.072 287.126 646.374C287.148 646.149 287.183 645.923 287.211 645.696C287.271 645.218 287.337 644.738 287.425 644.256C287.471 643.992 287.528 643.727 287.585 643.463C287.68 643.012 287.785 642.558 287.904 642.107C287.974 641.836 288.045 641.567 288.124 641.296C288.26 640.832 288.407 640.37 288.566 639.905C288.651 639.656 288.73 639.407 288.821 639.158C289.025 638.601 289.249 638.047 289.484 637.494C289.548 637.344 289.601 637.194 289.667 637.045C289.975 636.347 290.309 635.651 290.665 634.964C290.762 634.777 290.869 634.594 290.968 634.409C291.239 633.907 291.514 633.407 291.806 632.914C291.951 632.67 292.105 632.427 292.257 632.185C292.525 631.753 292.8 631.326 293.083 630.904C293.252 630.653 293.424 630.404 293.6 630.157C293.892 629.741 294.195 629.331 294.505 628.926C294.684 628.695 294.857 628.462 295.04 628.235C295.391 627.79 295.758 627.359 296.128 626.929C296.279 626.755 296.425 626.577 296.578 626.405C297.108 625.813 297.653 625.234 298.214 624.674C298.306 624.582 298.401 624.498 298.493 624.41C298.968 623.948 299.452 623.492 299.946 623.056C300.146 622.878 300.355 622.71 300.557 622.539C300.955 622.202 301.355 621.869 301.764 621.552C301.997 621.369 302.235 621.193 302.474 621.017C302.804 620.773 303.138 620.539 303.477 620.308C304.022 619.934 304.576 619.579 305.134 619.242C305.389 619.088 305.642 618.925 305.901 618.78C306.68 618.34 307.467 617.928 308.267 617.562C308.311 617.542 308.355 617.516 308.399 617.496L565.186 501.862C565.905 501.538 566.612 501.258 567.312 501.014C567.54 500.932 567.764 500.875 567.993 500.802C568.457 500.648 568.927 500.501 569.389 500.386Z" fill="#404043"/>
<path d="M288.826 923.652L288.408 923.686C288.207 923.702 288.008 923.714 287.811 923.716C286.515 923.716 285.616 923.436 285.068 922.886C284.295 922.111 283.858 920.525 283.87 918.535L285.452 642.586C285.502 633.914 293.373 622.798 302.298 618.796L569.338 499.104C571.229 498.254 573.017 497.798 574.509 497.782H574.512C575.787 497.782 576.665 498.055 577.205 498.596C577.982 499.375 578.421 500.968 578.409 502.965L576.827 778.914C576.777 787.593 568.913 798.72 559.997 802.725L382.952 882.068L388 924.751L288.826 923.652Z" fill="#4B4B4F"/>
<path d="M471.055 808.551L407.165 839.129C399.717 842.38 393.168 836.492 393.168 829.044V827.132C393.168 819.684 399.23 810.978 406.678 807.727L471.055 779.625C478.503 776.373 486.789 781.698 486.789 789.146L484.565 789.146C484.563 796.594 478.503 805.3 471.055 808.551Z" fill="#E5AE07"/>
<path d="M473.339 810.834L408.962 838.937C401.514 842.188 395.452 838.775 395.452 831.327V829.416C395.452 821.968 401.514 813.262 408.962 810.01L473.339 781.908C480.787 778.656 486.849 782.07 486.849 789.518V791.429C486.846 798.877 480.787 807.583 473.339 810.834Z" fill="url(#paint2_linear)"/>
<path d="M458.028 698.553L444.46 713.661C439.033 719.703 431.916 722.81 426.491 721.507L412.922 718.246C392.722 713.39 380.621 695.868 380.621 671.476V632.092L435.706 582.262L495.071 584.546V623.361C495.069 647.755 478.228 676.063 458.028 698.553Z" fill="#E5AE07"/>
<path d="M462.594 700.836L449.027 715.945C443.6 721.986 436.483 725.094 431.058 723.79L417.488 720.529C397.288 715.673 385.187 698.151 385.187 673.759V634.375L440.042 584.479L494.897 586.482V625.866C494.895 650.26 482.794 678.346 462.594 700.836Z" fill="url(#paint3_linear)"/>
<path d="M459.274 689.091L449.077 700.446C444.997 704.987 439.649 707.323 435.572 706.344L425.372 703.892C410.191 700.243 401.097 687.073 401.097 668.739V639.141L442.325 601.641L483.554 603.147V632.748C483.552 651.078 474.458 672.186 459.274 689.091Z" fill="#FFCF3E"/>
<path d="M458.447 670.551L426.196 684.63C423.395 685.854 421.123 684.573 421.123 681.771V656.961C421.123 654.16 423.395 650.897 426.196 649.675L458.447 635.597C461.249 634.373 463.521 635.654 463.521 638.456V663.265C463.523 666.067 461.249 669.327 458.447 670.551Z" fill="white"/>
<path d="M447.319 654.103C447.319 656.861 445.084 660.074 442.323 661.279C439.565 662.482 437.328 661.222 437.328 658.464C437.328 655.706 439.563 652.493 442.323 651.29C445.082 650.084 447.319 651.345 447.319 654.103Z" fill="#616161"/>
<path d="M442.323 668.939C441.154 669.448 440.207 668.914 440.207 667.747V662.062C440.207 660.893 441.154 659.535 442.323 659.023C443.49 658.512 444.437 659.046 444.437 660.215V665.9C444.44 667.067 443.492 668.428 442.323 668.939Z" fill="#616161"/>
<path d="M456.774 640.976L427.871 653.594V642.481C427.871 634.51 434.353 625.197 442.324 621.717C450.294 618.237 456.774 621.893 456.774 629.861V640.976V640.976ZM431.165 648.86L453.482 639.118V631.3C453.482 625.149 448.477 622.327 442.324 625.014C436.17 627.701 431.165 634.891 431.165 641.043V648.86Z" fill="white"/>
<path d="M347.698 814.061C345.056 814.061 343.48 812.275 343.48 809.284C343.48 804.407 347.65 798.468 352.584 796.315C353.764 795.799 354.883 795.539 355.911 795.539C358.55 795.539 360.128 797.324 360.128 800.315C360.128 805.192 355.958 811.131 351.024 813.287C349.842 813.798 348.723 814.061 347.698 814.061Z" fill="#CDD6DC"/>
<path d="M373.188 802.932C370.548 802.932 368.971 801.147 368.971 798.155C368.971 793.278 373.14 787.34 378.074 785.184C379.254 784.668 380.373 784.408 381.401 784.408C384.04 784.408 385.618 786.193 385.618 789.184C385.618 794.062 381.449 800 376.515 802.156C375.334 802.672 374.215 802.932 373.188 802.932Z" fill="#CDD6DC"/>
<path d="M398.678 791.803C396.039 791.803 394.461 790.018 394.461 787.027C394.461 782.15 398.63 776.211 403.564 774.056C404.745 773.54 405.864 773.279 406.891 773.279C409.53 773.279 411.108 775.065 411.108 778.056C411.108 782.933 406.939 788.872 402.007 791.025C400.824 791.543 399.706 791.803 398.678 791.803Z" fill="#CDD6DC"/>
<path d="M424.171 780.675C421.531 780.675 419.954 778.89 419.954 775.898C419.954 771.021 424.123 765.083 429.057 762.93C430.237 762.414 431.356 762.153 432.384 762.153C435.025 762.153 436.601 763.939 436.601 766.93C436.601 771.807 432.432 777.745 427.5 779.899C426.317 780.415 425.198 780.675 424.171 780.675Z" fill="#CDD6DC"/>
<path d="M449.768 767.619C447.127 767.619 445.551 765.834 445.551 762.843C445.551 757.966 449.72 752.027 454.655 749.874C455.835 749.358 456.954 749.097 457.981 749.097C460.621 749.097 462.196 750.883 462.196 753.874C462.196 758.751 458.027 764.69 453.095 766.845C451.915 767.359 450.794 767.619 449.768 767.619Z" fill="#CDD6DC"/>
<path d="M475.259 756.493C472.62 756.493 471.042 754.708 471.042 751.716C471.042 746.839 475.211 740.901 480.145 738.745C481.326 738.229 482.445 737.969 483.472 737.969C486.111 737.969 487.689 739.754 487.689 742.746C487.689 747.623 483.52 753.561 478.586 755.717C477.405 756.23 476.287 756.493 475.259 756.493Z" fill="#CDD6DC"/>
<path d="M500.749 745.364C498.11 745.364 496.532 743.579 496.532 740.588C496.532 735.711 500.701 729.772 505.636 727.617C506.816 727.101 507.935 726.84 508.962 726.84C511.602 726.84 513.179 728.626 513.179 731.617C513.179 736.494 509.01 742.433 504.076 744.586C502.896 745.102 501.777 745.364 500.749 745.364Z" fill="#CDD6DC"/>
<path d="M526.242 734.236C523.602 734.236 522.024 732.45 522.024 729.459C522.024 724.582 526.194 718.643 531.128 716.49C532.308 715.974 533.427 715.714 534.454 715.714C537.094 715.714 538.672 717.499 538.672 720.491C538.672 725.368 534.502 731.306 529.571 733.459C528.388 733.975 527.269 734.236 526.242 734.236Z" fill="#CDD6DC"/>
</g>
<g filter="url(#filter5_d)">
<path d="M600.505 664.229C599.329 663.795 593.043 669.133 590.728 664.727C588.744 660.957 586.326 658.5 585.753 658.843C584.611 659.53 588.148 667.426 590.578 670.243C593.011 673.058 595.877 675.1 594.475 676.065C592.89 677.159 587.632 675.705 587.267 676.317C585.504 679.228 594.658 680.415 598.256 679.531C602.884 678.394 620.299 705.645 620.299 705.645L630.528 698.186C630.528 698.186 610.241 678.481 607.179 672.376C606.008 670.028 605.3 665.989 600.505 664.229Z" fill="#FDABAB"/>
<path d="M657.177 702.364C644.359 700.695 633.176 696.021 629.502 695.007C625.828 693.998 615.905 705.803 620.606 710.061C632.539 720.856 647.179 723.633 657.812 724.802C670.423 726.183 679.505 725.19 679.836 716.207C680.126 708.232 672.224 704.33 657.177 702.364Z" fill="white"/>
<path d="M647.944 908.003C646.853 910.364 648.86 914.152 650.826 915.855C652.988 917.728 665.968 928.963 674.393 925.737C675.412 925.347 676.435 924.869 677.161 924.063C678.423 922.666 676.64 915.038 675.234 913.668C673.398 911.866 648.832 906.065 647.944 908.003Z" fill="#5C629E"/>
<path d="M662.986 906.925C657.023 904.612 649.182 904.864 648.287 906.797C647.2 909.163 650.497 913.177 652.452 914.896C658.066 919.821 669.382 925.077 673.473 923.707C674.505 923.365 676.433 922.621 677.161 921.812C678.424 920.415 677.261 915.529 675.759 914.072C674.341 912.702 666.128 908.147 662.986 906.925Z" fill="#D3DAED"/>
<path d="M665.754 920.452C666.413 920.452 666.948 919.762 666.948 918.91C666.948 918.059 666.413 917.369 665.754 917.369C665.094 917.369 664.56 918.059 664.56 918.91C664.56 919.762 665.094 920.452 665.754 920.452Z" fill="#5C629E"/>
<path d="M673.932 912.476L671.571 915.593L672.176 916.711C673.348 918.399 673.156 923.917 673.156 923.917C675.88 923.714 676.823 922.134 676.823 922.134C677.524 916.684 675.323 914.593 675.323 914.593L673.932 912.476Z" fill="#5C629E"/>
<path d="M660.418 909.377C659.932 910.453 660.852 913.462 666.067 915.677C667.923 916.469 670.183 917.042 672.179 916.711C671.921 915.892 672.279 914.923 673.008 914.474C673.748 914.019 674.629 914.2 675.325 914.592C674.923 913.22 674.704 911.793 674.453 910.38C672.987 910.631 661.955 906.001 660.418 909.377Z" fill="#FDABAB"/>
<path d="M657.344 846.673C657.691 861.304 661.374 908.681 661.374 908.681C661.374 908.681 666.849 913.771 677.252 909.757C677.252 909.757 680.051 876.049 680.983 865.713C681.914 855.376 680.222 846.442 679.361 844.504C677.021 839.263 656.99 832.048 657.344 846.673Z" fill="#4B4E78"/>
<path d="M675.882 768.69C673.393 766.807 665.728 765.704 658.025 772.405C644.161 784.472 657.504 841.401 657.504 851.009C657.504 860.927 677.483 859.975 679.793 846.684C681.346 837.754 685.104 806.793 685.586 801.19C686.111 795.071 686.182 776.474 675.882 768.69Z" fill="#4B4E78"/>
<path d="M625.157 919.18C624.066 921.541 626.073 925.331 628.037 927.036C630.199 928.904 643.179 940.14 651.607 936.911C652.623 936.521 653.641 936.046 654.374 935.236C655.637 933.84 653.856 926.212 652.447 924.84C650.607 923.043 626.046 917.241 625.157 919.18Z" fill="#5C629E"/>
<path d="M640.2 918.102C634.236 915.789 626.395 916.04 625.5 917.972C624.413 920.337 627.706 924.354 629.665 926.071C635.279 931 646.595 936.256 650.687 934.882C651.721 934.539 653.641 933.795 654.374 932.987C655.637 931.589 654.474 926.703 652.965 925.246C651.554 923.883 643.341 919.324 640.2 918.102Z" fill="#D3DAED"/>
<path d="M642.96 931.628C643.616 931.628 644.147 930.938 644.147 930.087C644.147 929.236 643.616 928.546 642.96 928.546C642.304 928.546 641.773 929.236 641.773 930.087C641.773 930.938 642.304 931.628 642.96 931.628Z" fill="#5C629E"/>
<path d="M651.141 923.655L648.785 926.769L649.39 927.888C650.557 929.573 650.369 935.094 650.369 935.094C653.093 934.891 654.036 933.318 654.036 933.318C654.737 927.861 652.536 925.769 652.536 925.769L651.141 923.655Z" fill="#5C629E"/>
<path d="M637.631 920.554C637.138 921.636 638.063 924.639 643.278 926.856C645.134 927.648 647.394 928.221 649.39 927.888C649.134 927.07 649.493 926.1 650.221 925.65C650.954 925.2 651.842 925.376 652.539 925.769C652.137 924.399 651.918 922.97 651.666 921.556C650.198 921.808 639.168 917.177 637.631 920.554Z" fill="#FDABAB"/>
<path d="M635.151 858.728C635.498 873.357 639.101 919.801 639.101 919.801C639.101 919.801 644.519 927.605 654.915 923.591C654.915 923.591 657.86 888.104 658.789 877.77C659.721 867.434 659.123 856.872 658.26 854.938C655.922 849.691 634.797 844.101 635.151 858.728Z" fill="#5C629E"/>
<path d="M657.34 781.367C654.851 779.481 645.364 774.09 637.48 780.579C626.834 789.335 635.307 853.454 635.307 863.062C635.307 872.976 655.288 872.028 657.596 858.737C659.148 849.803 665.037 811.17 665.519 805.572C666.044 799.455 667.64 789.144 657.34 781.367Z" fill="#5C629E"/>
<path d="M664.914 810.533C665.226 808.211 665.443 806.467 665.521 805.574C666.044 799.455 667.64 789.146 657.34 781.367C654.851 779.481 645.364 774.09 637.48 780.579C635.59 782.134 635.713 795.639 635.713 795.639C635.713 795.639 649.844 807.691 664.914 810.533Z" fill="#4B4E78"/>
<path d="M682.44 740.398C684.698 725.212 683.981 704.426 667.644 704.426C659.571 704.426 633.032 711.111 633.032 728.263C633.032 743.31 635.608 776.814 631.42 794.82C631.42 794.82 674.656 804.231 686.662 790.356C686.664 790.358 680.175 755.587 682.44 740.398Z" fill="#D3DAED"/>
<path d="M660.093 799.103C646.008 799.103 632.187 796.155 631.178 795.939C630.879 795.872 630.619 795.692 630.457 795.432C630.292 795.174 630.24 794.861 630.311 794.564C633.455 781.04 632.735 758.42 632.21 741.905C632.039 736.54 631.893 731.905 631.893 728.263C631.893 710.965 657.801 703.284 667.646 703.284C672.382 703.284 676.209 704.935 679.015 708.191C685.967 716.255 684.853 731.937 683.57 740.565C681.36 755.39 687.721 789.801 687.787 790.146C687.851 790.488 687.755 790.84 687.527 791.103C682.145 797.325 671.037 799.103 660.093 799.103ZM632.786 793.936C639.526 795.256 674.619 801.462 685.437 790.011C684.584 785.326 679.172 754.559 681.309 740.232C682.296 733.597 683.88 717.335 677.284 709.686C674.93 706.956 671.685 705.57 667.644 705.57C660.831 705.57 634.174 711.495 634.174 728.265C634.174 731.87 634.32 736.487 634.491 741.835C635.005 758.023 635.706 780.031 632.786 793.936Z" fill="#C2CBE7"/>
<path d="M656.418 677.015C654.84 675.999 641.243 676.134 641.065 678.13C640.887 680.13 642.805 682.952 642.081 684.826C641.579 686.121 640.967 688.92 642.017 690.667C645.542 696.519 647.953 701.469 651.764 700.35C652.728 704.36 649.024 708.974 649.522 708.903C652.385 708.513 660.368 705.713 662.936 704.36C661.566 695.409 663.792 688.632 659.055 680.168C658.379 678.963 657.587 677.764 656.418 677.015Z" fill="#FDABAB"/>
<path d="M660.687 667.291C660.687 660.393 648.181 661.877 648.348 667.097C642.834 663.955 634.032 677.221 643.749 684.504C643.749 684.504 640.735 679.036 642.882 677.253C642.882 682.253 646.779 681.102 647.955 686.829C648.672 690.345 649.786 694.035 652.923 696.126C655.615 697.925 662.515 696.325 662.515 696.325C662.515 691.484 672.276 682.536 668.582 678.271C672.861 672.405 665.938 665.263 660.687 667.291Z" fill="#023248"/>
<path d="M662.13 700.355C659.089 700.526 656.397 701.051 649.906 704.357C648.289 705.181 646.385 707.912 646.435 710.723L666.359 704.368L664.534 701.574C664.005 700.77 663.089 700.3 662.13 700.355Z" fill="white"/>
<path d="M615.791 779.401C614.896 779.737 611.711 780.079 610.56 779.218C608.099 777.376 604.569 776.049 604.517 777.355C604.489 778.001 607.494 780.052 608.553 781.44C609.494 782.666 608.167 782.547 605.281 784.299C602.395 786.05 599.265 791.194 598.263 793.007C597.61 794.185 601.596 792.231 603.873 789.105C606.672 785.255 603.868 791.171 604.628 792.146C605.389 793.114 610.222 794.763 611.218 795.315C612.209 795.868 615.522 791.162 617.191 789.463C621.538 785.043 649.99 778.57 649.99 769.626C649.99 766.756 643.261 760.5 640.818 762.014C634.722 765.788 622.6 776.846 615.791 779.401Z" fill="#FDABAB"/>
<path d="M642.453 715.653C635.419 717.381 633.973 725.245 636.001 738.866C637.725 750.468 637.174 758.377 637.2 761.836C637.231 765.293 648.707 777.312 651.255 772.152C657.71 759.053 657.05 742.31 655.427 732.738C653.502 721.386 650.374 713.705 642.453 715.653Z" fill="white"/>
</g>
<path d="M202.526 565.053C198.372 565.053 195 561.68 195 557.526C195 553.372 198.372 550 202.526 550C206.68 550 210.053 553.372 210.053 557.526C210.053 561.68 206.68 565.053 202.526 565.053ZM202.526 551.213C199.031 551.213 196.193 554.051 196.193 557.547C196.193 561.043 199.031 563.881 202.526 563.881C206.022 563.881 208.86 561.043 208.86 557.547C208.86 554.051 206.022 551.213 202.526 551.213Z" fill="#FCF8E9"/>
<path d="M216.249 468.889C215.92 468.889 215.652 468.622 215.652 468.293V462.596C215.652 462.267 215.92 462 216.249 462C216.578 462 216.845 462.267 216.845 462.596V468.293C216.845 468.622 216.578 468.889 216.249 468.889Z" fill="#FCF8E9"/>
<path d="M216.249 484.497C215.92 484.497 215.652 484.23 215.652 483.901V478.205C215.652 477.875 215.92 477.608 216.249 477.608C216.578 477.608 216.845 477.875 216.845 478.205V483.901C216.845 484.23 216.578 484.497 216.249 484.497Z" fill="#FCF8E9"/>
<path d="M226.921 473.845H221.225C220.896 473.845 220.628 473.578 220.628 473.249C220.628 472.92 220.896 472.652 221.225 472.652H226.921C227.25 472.652 227.517 472.92 227.517 473.249C227.517 473.578 227.25 473.845 226.921 473.845Z" fill="#FCF8E9"/>
<path d="M211.293 473.845H205.596C205.267 473.845 205 473.578 205 473.249C205 472.92 205.267 472.652 205.596 472.652H211.293C211.622 472.652 211.889 472.92 211.889 473.249C211.889 473.578 211.622 473.845 211.293 473.845Z" fill="#FCF8E9"/>
<path d="M737.776 486.627C733.622 486.627 730.25 483.255 730.25 479.101C730.25 474.947 733.622 471.574 737.776 471.574C741.93 471.574 745.303 474.947 745.303 479.101C745.303 483.255 741.91 486.627 737.776 486.627ZM737.776 472.767C734.281 472.767 731.443 475.605 731.443 479.101C731.443 482.597 734.281 485.435 737.776 485.435C741.272 485.435 744.11 482.597 744.11 479.101C744.11 475.605 741.252 472.767 737.776 472.767Z" fill="#F7EBBE"/>
<path d="M648.559 543.919C648.23 543.919 647.962 543.651 647.962 543.322V537.626C647.962 537.297 648.23 537.03 648.559 537.03C648.888 537.03 649.155 537.297 649.155 537.626V543.322C649.155 543.651 648.888 543.919 648.559 543.919Z" fill="#FCF8E9"/>
<path d="M648.559 559.527C648.23 559.527 647.962 559.26 647.962 558.931V553.234C647.962 552.905 648.23 552.638 648.559 552.638C648.888 552.638 649.155 552.905 649.155 553.234V558.931C649.155 559.26 648.888 559.527 648.559 559.527Z" fill="#FCF8E9"/>
<path d="M659.231 548.875H653.535C653.206 548.875 652.938 548.607 652.938 548.278C652.938 547.949 653.206 547.682 653.535 547.682H659.231C659.56 547.682 659.827 547.949 659.827 548.278C659.827 548.607 659.56 548.875 659.231 548.875Z" fill="#FCF8E9"/>
<path d="M643.603 548.875H637.906C637.577 548.875 637.31 548.607 637.31 548.278C637.31 547.949 637.577 547.682 637.906 547.682H643.603C643.932 547.682 644.199 547.949 644.199 548.278C644.199 548.607 643.932 548.875 643.603 548.875Z" fill="#FCF8E9"/>
</g>
<path d="M97.8848 1038.1C97.6663 1038.1 97.4888 1037.93 97.4888 1037.71V1033.92C97.4888 1033.71 97.6663 1033.53 97.8848 1033.53C98.1033 1033.53 98.2808 1033.71 98.2808 1033.92V1037.71C98.2945 1037.93 98.1169 1038.1 97.8848 1038.1Z" fill="#FCF8E9"/>
<path d="M97.8848 1048.48C97.6663 1048.48 97.4888 1048.3 97.4888 1048.09V1044.3C97.4888 1044.08 97.6663 1043.91 97.8848 1043.91C98.1033 1043.91 98.2808 1044.08 98.2808 1044.3V1048.09C98.2945 1048.3 98.1169 1048.48 97.8848 1048.48Z" fill="#FCF8E9"/>
<path d="M104.973 1041.39H101.19C100.971 1041.39 100.794 1041.22 100.794 1041C100.794 1040.78 100.971 1040.6 101.19 1040.6H104.973C105.191 1040.6 105.369 1040.78 105.369 1041C105.369 1041.22 105.191 1041.39 104.973 1041.39Z" fill="#FCF8E9"/>
<path d="M94.5938 1041.39H90.811C90.5926 1041.39 90.415 1041.22 90.415 1041C90.415 1040.78 90.5926 1040.6 90.811 1040.6H94.5938C94.8122 1040.6 94.9898 1040.78 94.9898 1041C94.9898 1041.22 94.8122 1041.39 94.5938 1041.39Z" fill="#FCF8E9"/>
<circle cx="67.5297" cy="1003.19" r="4.28993" stroke="#E8E8E8"/>
<circle cx="773" cy="979" r="15" fill="#343333"/>
<circle cx="777" cy="978" r="16.5" stroke="#E8E8E8"/>
<g opacity="0.15">
<circle cx="65.5" cy="148.5" r="2.5" fill="white"/>
<circle cx="65.5" cy="220.5" r="2.5" fill="white"/>
<circle cx="65.5" cy="184.5" r="2.5" fill="white"/>
<circle cx="65.5" cy="256.5" r="2.5" fill="white"/>
<circle cx="65.5" cy="160.5" r="2.5" fill="white"/>
<circle cx="65.5" cy="232.5" r="2.5" fill="white"/>
<circle cx="65.5" cy="196.5" r="2.5" fill="white"/>
<circle cx="65.5" cy="268.5" r="2.5" fill="white"/>
<circle cx="65.5" cy="172.5" r="2.5" fill="white"/>
<circle cx="65.5" cy="244.5" r="2.5" fill="white"/>
<circle cx="65.5" cy="208.5" r="2.5" fill="white"/>
<circle cx="65.5" cy="280.5" r="2.5" fill="white"/>
<circle cx="41.5" cy="148.5" r="2.5" fill="white"/>
<circle cx="41.5" cy="220.5" r="2.5" fill="white"/>
<circle cx="41.5" cy="184.5" r="2.5" fill="white"/>
<circle cx="41.5" cy="256.5" r="2.5" fill="white"/>
<circle cx="41.5" cy="160.5" r="2.5" fill="white"/>
<circle cx="41.5" cy="232.5" r="2.5" fill="white"/>
<circle cx="41.5" cy="196.5" r="2.5" fill="white"/>
<circle cx="41.5" cy="268.5" r="2.5" fill="white"/>
<circle cx="41.5" cy="172.5" r="2.5" fill="white"/>
<circle cx="41.5" cy="244.5" r="2.5" fill="white"/>
<circle cx="41.5" cy="208.5" r="2.5" fill="white"/>
<circle cx="41.5" cy="280.5" r="2.5" fill="white"/>
<circle cx="77.5" cy="148.5" r="2.5" fill="white"/>
<circle cx="77.5" cy="220.5" r="2.5" fill="white"/>
<circle cx="77.5" cy="184.5" r="2.5" fill="white"/>
<circle cx="77.5" cy="256.5" r="2.5" fill="white"/>
<circle cx="77.5" cy="160.5" r="2.5" fill="white"/>
<circle cx="77.5" cy="232.5" r="2.5" fill="white"/>
<circle cx="77.5" cy="196.5" r="2.5" fill="white"/>
<circle cx="77.5" cy="268.5" r="2.5" fill="white"/>
<circle cx="77.5" cy="172.5" r="2.5" fill="white"/>
<circle cx="77.5" cy="244.5" r="2.5" fill="white"/>
<circle cx="77.5" cy="208.5" r="2.5" fill="white"/>
<circle cx="77.5" cy="280.5" r="2.5" fill="white"/>
<circle cx="53.5" cy="148.5" r="2.5" fill="white"/>
<circle cx="53.5" cy="220.5" r="2.5" fill="white"/>
<circle cx="53.5" cy="184.5" r="2.5" fill="white"/>
<circle cx="53.5" cy="256.5" r="2.5" fill="white"/>
<circle cx="53.5" cy="160.5" r="2.5" fill="white"/>
<circle cx="53.5" cy="232.5" r="2.5" fill="white"/>
<circle cx="53.5" cy="196.5" r="2.5" fill="white"/>
<circle cx="53.5" cy="268.5" r="2.5" fill="white"/>
<circle cx="53.5" cy="172.5" r="2.5" fill="white"/>
<circle cx="53.5" cy="244.5" r="2.5" fill="white"/>
<circle cx="53.5" cy="208.5" r="2.5" fill="white"/>
<circle cx="53.5" cy="280.5" r="2.5" fill="white"/>
</g>
<circle cx="789" cy="146" r="12" fill="#262626"/>
<circle cx="753" cy="165" r="6" fill="#262626"/>
<circle cx="797" cy="188" r="6" fill="#262626"/>
<defs>
<filter id="filter0_f" x="106" y="0" width="623" height="562" filterUnits="userSpaceOnUse" color-interpolation-filters="sRGB">
<feFlood flood-opacity="0" result="BackgroundImageFix"/>
<feBlend mode="normal" in="SourceGraphic" in2="BackgroundImageFix" result="shape"/>
<feGaussianBlur stdDeviation="45" result="effect1_foregroundBlur"/>
</filter>
<filter id="filter1_f" x="-112" y="249" width="993" height="993" filterUnits="userSpaceOnUse" color-interpolation-filters="sRGB">
<feFlood flood-opacity="0" result="BackgroundImageFix"/>
<feBlend mode="normal" in="SourceGraphic" in2="BackgroundImageFix" result="shape"/>
<feGaussianBlur stdDeviation="50" result="effect1_foregroundBlur"/>
</filter>
<filter id="filter2_d" x="62" y="361" width="746.557" height="746.557" filterUnits="userSpaceOnUse" color-interpolation-filters="sRGB">
<feFlood flood-opacity="0" result="BackgroundImageFix"/>
<feColorMatrix in="SourceAlpha" type="matrix" values="0 0 0 0 0 0 0 0 0 0 0 0 0 0 0 0 0 0 127 0"/>
<feOffset dx="5" dy="-5"/>
<feGaussianBlur stdDeviation="15"/>
<feColorMatrix type="matrix" values="0 0 0 0 0 0 0 0 0 0 0 0 0 0 0 0 0 0 0.25 0"/>
<feBlend mode="normal" in2="BackgroundImageFix" result="effect1_dropShadow"/>
<feBlend mode="normal" in="SourceGraphic" in2="effect1_dropShadow" result="shape"/>
</filter>
<filter id="filter3_f" x="77" y="321" width="581.156" height="656.533" filterUnits="userSpaceOnUse" color-interpolation-filters="sRGB">
<feFlood flood-opacity="0" result="BackgroundImageFix"/>
<feBlend mode="normal" in="SourceGraphic" in2="BackgroundImageFix" result="shape"/>
<feGaussianBlur stdDeviation="40" result="effect1_foregroundBlur"/>
</filter>
<filter id="filter4_d" x="252.93" y="468.649" width="360.48" height="486.102" filterUnits="userSpaceOnUse" color-interpolation-filters="sRGB">
<feFlood flood-opacity="0" result="BackgroundImageFix"/>
<feColorMatrix in="SourceAlpha" type="matrix" values="0 0 0 0 0 0 0 0 0 0 0 0 0 0 0 0 0 0 127 0"/>
<feOffset dx="10" dy="5"/>
<feGaussianBlur stdDeviation="12.5"/>
<feColorMatrix type="matrix" values="0 0 0 0 0 0 0 0 0 0 0 0 0 0 0 0 0 0 0.2 0"/>
<feBlend mode="normal" in2="BackgroundImageFix" result="effect1_dropShadow"/>
<feBlend mode="normal" in="SourceGraphic" in2="effect1_dropShadow" result="shape"/>
</filter>
<filter id="filter5_d" x="560.532" y="623.811" width="162.274" height="338.68" filterUnits="userSpaceOnUse" color-interpolation-filters="sRGB">
<feFlood flood-opacity="0" result="BackgroundImageFix"/>
<feColorMatrix in="SourceAlpha" type="matrix" values="0 0 0 0 0 0 0 0 0 0 0 0 0 0 0 0 0 0 127 0"/>
<feOffset dx="5" dy="-5"/>
<feGaussianBlur stdDeviation="15"/>
<feColorMatrix type="matrix" values="0 0 0 0 0 0 0 0 0 0 0 0 0 0 0 0 0 0 0.15 0"/>
<feBlend mode="normal" in2="BackgroundImageFix" result="effect1_dropShadow"/>
<feBlend mode="normal" in="SourceGraphic" in2="effect1_dropShadow" result="shape"/>
</filter>
<radialGradient id="paint0_radial" cx="0" cy="0" r="1" gradientUnits="userSpaceOnUse" gradientTransform="translate(385.032 775.304) rotate(-87.4692) scale(482.125 564.298)">
<stop offset="0.004109" stop-color="#847824"/>
<stop offset="0.354167" stop-color="#544F2C" stop-opacity="0.42"/>
<stop offset="0.692708" stop-color="#313131" stop-opacity="0.25"/>
</radialGradient>
<radialGradient id="paint1_radial" cx="0" cy="0" r="1" gradientUnits="userSpaceOnUse" gradientTransform="translate(429.794 700.715) rotate(-54.967) scale(205.299 114.182)">
<stop offset="0.0823453" stop-color="#847824" stop-opacity="0.25"/>
<stop offset="0.311277" stop-color="#9F9864" stop-opacity="0.31"/>
<stop offset="0.962525" stop-color="#9F9864" stop-opacity="0.31"/>
<stop offset="1" stop-color="#9F9864" stop-opacity="0"/>
</radialGradient>
<linearGradient id="paint2_linear" x1="148169" y1="31711.1" x2="154281" y2="38224.9" gradientUnits="userSpaceOnUse">
<stop offset="0.15" stop-color="#FFC107"/>
<stop offset="1" stop-color="#FFF48C"/>
</linearGradient>
<linearGradient id="paint3_linear" x1="177769" y1="73167.7" x2="189850" y2="79752.9" gradientUnits="userSpaceOnUse">
<stop offset="0.15" stop-color="#FFC107"/>
<stop offset="1" stop-color="#FFF48C"/>
</linearGradient>
<clipPath id="clip0">
<rect width="686.557" height="686.557" fill="white" transform="translate(87 396)"/>
</clipPath>
</defs>
</svg>
