<svg width="236" height="88" viewBox="0 0 236 88" fill="none" xmlns="http://www.w3.org/2000/svg">
<path d="M107.916 13.9382C100.102 21.5937 89.9121 31.5194 85.3189 36.0071L76.8714 44.1906L78.9833 47.0416C80.092 48.6255 82.8902 52.2156 85.1077 55.0138C87.3779 57.812 89.2258 60.3991 89.2258 60.7686C89.2258 61.191 88.4338 61.2966 86.5332 61.0854C85.0021 60.8742 83.735 60.663 83.735 60.6102C83.6822 60.5046 81.5175 57.6536 78.9305 54.2219L74.2316 47.9391L73.0173 49.4702C71.2222 51.6876 70.8526 50.8429 77.769 60.663L81.8871 66.5234H91.1265C96.1949 66.5234 100.313 66.365 100.313 66.2067C100.313 66.0483 96.7229 61.1382 92.3408 55.2778C83.2598 43.1874 83.6294 44.7713 88.4866 39.2277C89.9649 37.5382 96.2477 30.3579 102.425 23.2304C108.602 16.1029 114.99 8.76415 116.627 6.91628C120.956 2.00621 122.593 -5.34058e-05 122.329 -5.34058e-05C122.224 -5.34058e-05 115.73 6.28272 107.916 13.9382Z" fill="#E6BE27"/>
<path d="M0.369575 22.0161C0.158389 22.1744 0 32.3114 0 44.4545V66.5234H7.65548H15.311V59.6599V52.7964H24.1808C37.2743 52.7964 42.4483 51.6348 46.4081 47.8863C49.2063 45.1937 50.315 42.1315 50.315 37.2214C50.315 28.5628 45.8273 23.7583 36.2711 22.1744C32.681 21.5937 0.897539 21.4353 0.369575 22.0161ZM32.153 32.7865C34.1593 33.4729 34.8456 34.6344 34.8456 37.3798C34.8456 38.8053 34.4761 39.8612 33.5785 40.8116C32.1002 42.3955 28.4045 42.9234 20.5906 42.6595L15.5749 42.5011L15.4166 37.327L15.2582 32.2058H22.8609C27.0318 32.2058 31.2027 32.4697 32.153 32.7865Z" fill="#E6BE27"/>
<path d="M49.998 22.2801C59.0262 34.0009 65.9954 43.9266 65.6258 44.5602C65.4146 44.9298 63.9891 46.672 62.5108 48.3615C44.5072 69.0049 31.1497 84.4215 29.9354 85.847C26.5564 89.8595 29.7242 87.0613 39.7555 77.1356C45.6159 71.3808 55.6473 61.5606 62.0356 55.2779L73.5981 43.9794L71.1166 40.8644C69.7439 39.1749 66.8929 35.4792 64.7283 32.7338L60.8213 27.7181L63.5667 27.5597C65.7314 27.4013 66.4177 27.6125 67.0513 28.4045C67.4737 28.9852 68.6352 30.5163 69.5855 31.7306C70.5359 32.9978 72.0142 35.004 72.9117 36.1655C73.8092 37.3271 74.918 38.7526 75.3403 39.3333C76.0795 40.3893 76.0795 40.3365 77.3994 38.8582C78.1385 38.0662 78.6665 37.0631 78.5609 36.7463C78.4553 36.3767 76.1323 32.8394 73.3869 28.8796L68.3712 21.6465H58.9206C51.4763 21.6465 49.6285 21.8049 49.998 22.2801Z" fill="#E6BE27"/>
<path d="M110.608 22.1218C110.45 22.4385 110.291 32.5227 110.186 44.5602L110.08 66.5236H112.35H114.621L114.515 58.4457L114.462 50.4207L126.764 50.1567L139.118 49.8927L142.286 48.3088C147.46 45.7218 149.783 41.0757 149.308 34.5817C148.727 27.6126 144.609 23.3889 137.27 22.2274C132.994 21.541 111.03 21.4882 110.608 22.1218ZM139.699 27.4014C143.289 28.9853 144.873 31.6251 144.873 36.1656C144.82 39.4918 143.975 41.762 142.128 43.4515C139.857 45.5106 137.481 45.8802 125.813 45.933H114.568V36.2712C114.568 30.9388 114.726 26.3983 114.99 26.1871C115.201 25.9231 120.217 25.8703 126.183 25.9759C136.003 26.1871 137.27 26.2927 139.699 27.4014Z" fill="white"/>
<path d="M168.157 26.7679C166.784 29.6189 163.775 35.8488 161.557 40.6533C159.287 45.4578 156.225 51.9517 154.694 55.1723C153.163 58.3401 151.367 62.247 150.681 63.7253L149.467 66.5236H151.79H154.166L156.753 60.9799L159.393 55.4363H173.12C188.959 55.4363 186.741 54.5916 190.067 62.0359L191.968 66.2596L194.449 66.418C195.822 66.5236 196.931 66.4708 196.931 66.3652C196.931 66.2068 195.4 62.9334 193.552 59.0265C191.704 55.1723 189.222 49.9983 188.061 47.5168C186.899 45.0354 184.682 40.3893 183.204 37.2215C181.673 34.001 179.402 29.1965 178.135 26.5039L175.865 21.6466H173.278H170.638L168.157 26.7679ZM178.98 38.2775C181.937 44.6658 184.471 50.2095 184.629 50.5262C184.84 51.0542 182.412 51.2126 173.489 51.2126C164.039 51.2126 162.085 51.107 162.085 50.4734C162.085 49.6287 163.669 46.0913 168.368 36.2712C170.11 32.5755 171.588 29.3549 171.588 29.1437C171.588 28.6157 173.225 26.2927 173.436 26.5039C173.489 26.6095 176.023 31.8891 178.98 38.2775Z" fill="white"/>
<path d="M191.651 22.069C191.651 22.333 192.443 23.6001 193.446 24.8672C194.397 26.1343 197.037 29.6717 199.254 32.7339C201.524 35.796 203.795 38.8582 204.323 39.5974C204.85 40.3365 206.751 42.8708 208.493 45.2466L211.714 49.5759V58.0761V66.5236H213.826H215.938V58.1289V49.7871L219.739 44.5602C221.798 41.7092 223.699 39.1222 223.963 38.8054C226.972 35.0041 236 22.4913 236 22.1218C236 21.8578 234.944 21.6466 233.625 21.6466C231.354 21.6466 231.196 21.7522 229.084 24.656C217.944 39.9142 214.195 44.877 213.826 44.877C213.615 44.877 211.714 42.5012 209.549 39.5446C207.385 36.588 203.583 31.3611 200.996 27.9294L196.35 21.6466H194.027C192.707 21.6466 191.651 21.8578 191.651 22.069Z" fill="white"/>
</svg>
